<?xml version="1.0" encoding="UTF-8"?>
<svg version="1.1" xmlns="http://www.w3.org/2000/svg" width="259" height="194">
<path d="M0 0 C85.47 0 170.94 0 259 0 C259 64.02 259 128.04 259 194 C173.53 194 88.06 194 0 194 C0 129.98 0 65.96 0 0 Z " fill="#FEFCFC" transform="translate(0,0)"/>
<path d="M0 0 C1.17231674 -0.00137466 2.34463348 -0.00274933 3.55247498 -0.00416565 C5.49131813 0.00122726 5.49131813 0.00122726 7.46932983 0.00672913 C8.83906553 0.00701109 10.20880138 0.00685309 11.57853699 0.00628662 C15.30351953 0.00599899 19.02847006 0.01189024 22.75344515 0.01886058 C26.64387634 0.02509976 30.53430822 0.02569836 34.42474365 0.02688599 C41.79474694 0.02999763 49.16473545 0.03820879 56.53473222 0.04823548 C64.92397608 0.05940177 73.31322063 0.06490837 81.70247006 0.06993091 C98.96249308 0.08039153 116.22250169 0.09798776 133.48251343 0.12025452 C133.48251343 0.78025452 133.48251343 1.44025452 133.48251343 2.12025452 C134.47251343 2.61525452 134.47251343 2.61525452 135.48251343 3.12025452 C134.82251343 3.12025452 134.16251343 3.12025452 133.48251343 3.12025452 C133.48251343 5.76025452 133.48251343 8.40025452 133.48251343 11.12025452 C131.17251343 11.12025452 128.86251343 11.12025452 126.48251343 11.12025452 C127.08480316 14.70331198 127.3966179 15.05338507 130.49813843 17.46791077 C133.80199997 20.61844939 134.01917306 23.32364496 134.27938843 27.80384827 C134.29528571 30.38848202 134.27859257 32.97348265 134.23251343 35.55775452 C134.25571655 36.85519592 134.27891968 38.15263733 134.30282593 39.48939514 C134.23775569 50.07957608 134.23775569 50.07957608 130.56063843 54.53041077 C127.92771784 57.12025452 127.92771784 57.12025452 125.48251343 57.12025452 C125.48251343 57.78025452 125.48251343 58.44025452 125.48251343 59.12025452 C128.12251343 59.45025452 130.76251343 59.78025452 133.48251343 60.12025452 C133.48251343 61.77025452 133.48251343 63.42025452 133.48251343 65.12025452 C67.15251343 65.12025452 0.82251343 65.12025452 -67.51748657 65.12025452 C-66.85748657 64.13025452 -66.19748657 63.14025452 -65.51748657 62.12025452 C-63.37878418 61.75949097 -63.37878418 61.75949097 -60.70059204 61.77967834 C-59.69970551 61.77990494 -58.69881897 61.78013153 -57.66760254 61.78036499 C-56.04255295 61.80359077 -56.04255295 61.80359077 -54.38467407 61.82728577 C-52.72421555 61.83365303 -52.72421555 61.83365303 -51.0302124 61.84014893 C-47.48405948 61.85698238 -43.9384686 61.89464372 -40.39248657 61.93275452 C-37.99275518 61.94779529 -35.5930149 61.96148475 -33.19326782 61.97377014 C-27.30112318 62.00690127 -21.40940026 62.05871605 -15.51748657 62.12025452 C-15.51748657 58.82025452 -15.51748657 55.52025452 -15.51748657 52.12025452 C-19.53998606 52.0554988 -23.55727456 52.08004973 -27.57998657 52.12025452 C-28.71371704 52.10091858 -29.84744751 52.08158264 -31.01553345 52.06166077 C-37.30585491 52.01345639 -37.30585491 52.01345639 -42.59146118 54.95033264 C-43.71217848 56.39526145 -44.81038694 57.85799046 -45.88296509 59.33900452 C-47.85991933 61.49342694 -48.82139448 61.73458511 -51.70108032 61.90150452 C-53.12118015 61.84915061 -54.54031162 61.7548622 -55.95498657 61.62025452 C-56.68652954 61.58416077 -57.41807251 61.54806702 -58.17178345 61.51087952 C-59.95599814 61.41758724 -61.73747134 61.27410937 -63.51748657 61.12025452 C-63.51748657 60.46025452 -63.51748657 59.80025452 -63.51748657 59.12025452 C-62.22451782 57.83534241 -62.22451782 57.83534241 -60.32998657 56.28041077 C-54.72631217 51.50814573 -49.47242568 46.40550078 -44.2328186 41.24061584 C-43.08105365 40.11065344 -41.92305599 38.98701201 -40.75918579 37.86952209 C-39.05979523 36.23691877 -37.38083563 34.58556626 -35.70498657 32.92884827 C-35.18323853 32.43493088 -34.66149048 31.94101349 -34.12393188 31.43212891 C-31.52818233 28.82120774 -30.55199138 27.47816392 -30.19326782 23.75721741 C-30.30026001 22.88701965 -30.4072522 22.0168219 -30.51748657 21.12025452 C-28.20748657 20.46025452 -25.89748657 19.80025452 -23.51748657 19.12025452 C-23.18748657 17.80025452 -22.85748657 16.48025452 -22.51748657 15.12025452 C-21.19748657 14.79025452 -19.87748657 14.46025452 -18.51748657 14.12025452 C-18.51748657 13.46025452 -18.51748657 12.80025452 -18.51748657 12.12025452 C-17.19748657 12.45025452 -15.87748657 12.78025452 -14.51748657 13.12025452 C-15.01248657 11.63525452 -15.01248657 11.63525452 -15.51748657 10.12025452 C-14.19748657 9.46025452 -12.87748657 8.80025452 -11.51748657 8.12025452 C-11.51748657 7.46025452 -11.51748657 6.80025452 -11.51748657 6.12025452 C-10.85748657 5.79025452 -10.19748657 5.46025452 -9.51748657 5.12025452 C-9.18748657 4.46025452 -8.85748657 3.80025452 -8.51748657 3.12025452 C-6.63530301 -0.6441126 -3.83378151 -0.00345386 0 0 Z " fill="#F7F7F6" transform="translate(100.51748657226563,59.87974548339844)"/>
<path d="M0 0 C1.17231674 -0.00137466 2.34463348 -0.00274933 3.55247498 -0.00416565 C5.49131813 0.00122726 5.49131813 0.00122726 7.46932983 0.00672913 C8.83906553 0.00701109 10.20880138 0.00685309 11.57853699 0.00628662 C15.30351953 0.00599899 19.02847006 0.01189024 22.75344515 0.01886058 C26.64387634 0.02509976 30.53430822 0.02569836 34.42474365 0.02688599 C41.79474694 0.02999763 49.16473545 0.03820879 56.53473222 0.04823548 C64.92397608 0.05940177 73.31322063 0.06490837 81.70247006 0.06993091 C98.96249308 0.08039153 116.22250169 0.09798776 133.48251343 0.12025452 C133.48251343 0.78025452 133.48251343 1.44025452 133.48251343 2.12025452 C134.47251343 2.61525452 134.47251343 2.61525452 135.48251343 3.12025452 C134.82251343 3.12025452 134.16251343 3.12025452 133.48251343 3.12025452 C133.48251343 5.76025452 133.48251343 8.40025452 133.48251343 11.12025452 C71.11251343 11.61525452 71.11251343 11.61525452 7.48251343 12.12025452 C10.45251343 12.61525452 10.45251343 12.61525452 13.48251343 13.12025452 C13.51224243 14.63377502 13.51224243 14.63377502 13.54257202 16.1778717 C13.61874679 19.92779648 13.70744559 23.67733923 13.79989624 27.42689514 C13.83813701 29.04856311 13.87299846 30.67031448 13.90438843 32.29212952 C13.950146 34.62576568 14.00812158 36.95883014 14.06845093 39.29212952 C14.08000214 40.01519287 14.09155334 40.73825623 14.10345459 41.48323059 C14.2110452 45.16748659 14.45973232 47.98316943 16.48251343 51.12025452 C20.27799263 50.15249354 20.27799263 50.15249354 23.48251343 48.12025452 C23.64247509 45.52872345 23.74190039 42.96073432 23.79891968 40.36634827 C23.83009132 39.20317833 23.83009132 39.20317833 23.8618927 38.01651001 C23.92747145 35.53035144 23.98631142 33.04408407 24.04501343 30.55775452 C24.08819076 28.87610247 24.13180479 27.19446158 24.1758728 25.51283264 C24.28316121 21.38208581 24.38440475 17.25122916 24.48251343 13.12025452 C27.12251343 13.12025452 29.76251343 13.12025452 32.48251343 13.12025452 C32.63131962 18.27963239 32.73994136 23.4377501 32.81210327 28.59877014 C32.84219619 30.35257232 32.88308203 32.10622497 32.93515015 33.85951233 C33.008304 36.3869062 33.04204209 38.91230424 33.06845093 41.44056702 C33.09941864 42.21892914 33.13038635 42.99729126 33.16229248 43.79924011 C33.16491708 48.08672204 32.66737532 50.45221628 29.66513062 53.61952209 C26.42641647 56.60238867 23.76478637 56.83981716 19.35751343 56.68275452 C18.1586853 56.66341858 16.95985718 56.64408264 15.72470093 56.62416077 C12.37521019 56.10357727 10.92682181 55.40039293 8.48251343 53.12025452 C10.8040135 56.01924217 12.01524591 57.03355669 15.72470093 57.72181702 C16.92352905 57.72955139 18.12235718 57.73728577 19.35751343 57.74525452 C20.5511853 57.77877014 21.74485718 57.81228577 22.97470093 57.84681702 C27.57922764 56.89309545 29.84933365 54.99038187 32.48251343 51.12025452 C33.31532616 48.14078852 33.32220455 45.30201985 33.28720093 42.22181702 C33.30090729 41.38685699 33.31461365 40.55189697 33.32873535 39.69163513 C33.3659269 37.04228804 33.3623282 34.39482483 33.35751343 31.74525452 C33.37564796 29.94183994 33.39645303 28.13845012 33.42001343 26.33509827 C33.47176219 21.92983621 33.48695131 17.52580377 33.48251343 13.12025452 C34.14251343 13.12025452 34.80251343 13.12025452 35.48251343 13.12025452 C35.65626011 18.5461153 35.78290609 23.9703392 35.86703491 29.39833069 C35.90212093 31.24236778 35.94980479 33.08621175 36.0105896 34.92958069 C36.09604257 37.58867592 36.13531687 40.24518758 36.16610718 42.90541077 C36.20223618 43.72235916 36.23836517 44.53930756 36.27558899 45.38101196 C36.2780379 48.99511385 36.14872448 51.24671621 33.91271973 54.17857361 C32.67864832 55.40113245 31.40456276 56.58511854 30.08738708 57.71765137 C28.36076678 59.04776806 28.36076678 59.04776806 27.48251343 61.12025452 C79.95251343 61.61525452 79.95251343 61.61525452 133.48251343 62.12025452 C133.48251343 63.11025452 133.48251343 64.10025452 133.48251343 65.12025452 C67.15251343 65.12025452 0.82251343 65.12025452 -67.51748657 65.12025452 C-66.85748657 64.13025452 -66.19748657 63.14025452 -65.51748657 62.12025452 C-63.37878418 61.75949097 -63.37878418 61.75949097 -60.70059204 61.77967834 C-59.69970551 61.77990494 -58.69881897 61.78013153 -57.66760254 61.78036499 C-56.04255295 61.80359077 -56.04255295 61.80359077 -54.38467407 61.82728577 C-52.72421555 61.83365303 -52.72421555 61.83365303 -51.0302124 61.84014893 C-47.48405948 61.85698238 -43.9384686 61.89464372 -40.39248657 61.93275452 C-37.99275518 61.94779529 -35.5930149 61.96148475 -33.19326782 61.97377014 C-27.30112318 62.00690127 -21.40940026 62.05871605 -15.51748657 62.12025452 C-15.51748657 58.82025452 -15.51748657 55.52025452 -15.51748657 52.12025452 C-19.53998606 52.0554988 -23.55727456 52.08004973 -27.57998657 52.12025452 C-28.71371704 52.10091858 -29.84744751 52.08158264 -31.01553345 52.06166077 C-37.30585491 52.01345639 -37.30585491 52.01345639 -42.59146118 54.95033264 C-43.71217848 56.39526145 -44.81038694 57.85799046 -45.88296509 59.33900452 C-47.85991933 61.49342694 -48.82139448 61.73458511 -51.70108032 61.90150452 C-53.12118015 61.84915061 -54.54031162 61.7548622 -55.95498657 61.62025452 C-56.68652954 61.58416077 -57.41807251 61.54806702 -58.17178345 61.51087952 C-59.95599814 61.41758724 -61.73747134 61.27410937 -63.51748657 61.12025452 C-63.51748657 60.46025452 -63.51748657 59.80025452 -63.51748657 59.12025452 C-62.22451782 57.83534241 -62.22451782 57.83534241 -60.32998657 56.28041077 C-54.72631217 51.50814573 -49.47242568 46.40550078 -44.2328186 41.24061584 C-43.08105365 40.11065344 -41.92305599 38.98701201 -40.75918579 37.86952209 C-39.05979523 36.23691877 -37.38083563 34.58556626 -35.70498657 32.92884827 C-35.18323853 32.43493088 -34.66149048 31.94101349 -34.12393188 31.43212891 C-31.52818233 28.82120774 -30.55199138 27.47816392 -30.19326782 23.75721741 C-30.30026001 22.88701965 -30.4072522 22.0168219 -30.51748657 21.12025452 C-28.20748657 20.46025452 -25.89748657 19.80025452 -23.51748657 19.12025452 C-23.18748657 17.80025452 -22.85748657 16.48025452 -22.51748657 15.12025452 C-21.19748657 14.79025452 -19.87748657 14.46025452 -18.51748657 14.12025452 C-18.51748657 13.46025452 -18.51748657 12.80025452 -18.51748657 12.12025452 C-17.19748657 12.45025452 -15.87748657 12.78025452 -14.51748657 13.12025452 C-15.01248657 11.63525452 -15.01248657 11.63525452 -15.51748657 10.12025452 C-14.19748657 9.46025452 -12.87748657 8.80025452 -11.51748657 8.12025452 C-11.51748657 7.46025452 -11.51748657 6.80025452 -11.51748657 6.12025452 C-10.85748657 5.79025452 -10.19748657 5.46025452 -9.51748657 5.12025452 C-9.18748657 4.46025452 -8.85748657 3.80025452 -8.51748657 3.12025452 C-6.63530301 -0.6441126 -3.83378151 -0.00345386 0 0 Z " fill="#E19397" transform="translate(100.51748657226563,59.87974548339844)"/>
<path d="M0 0 C1.21558594 -0.03222656 2.43117187 -0.06445312 3.68359375 -0.09765625 C8.43361923 0.78398434 11.55479501 3.7187195 14.75854492 7.1809082 C18.19942496 12.67728215 17.73859579 18.38857104 17.5 24.6875 C17.50966797 25.97140625 17.51933594 27.2553125 17.52929688 28.578125 C17.41229882 35.42782924 17.0269512 40.09677396 12.03735352 45.03662109 C10.5625 46.0625 10.5625 46.0625 8.5625 46.0625 C8.5625 46.7225 8.5625 47.3825 8.5625 48.0625 C6.05772084 48.2813642 3.57234466 48.43789778 1.0625 48.5625 C0.36640625 48.62953125 -0.3296875 48.6965625 -1.046875 48.765625 C-5.59765792 48.93417252 -8.36827767 47.89671485 -11.90625 45 C-16.73010666 39.62375699 -16.64854147 33.52701318 -16.48046875 26.65380859 C-16.43750354 24.56267236 -16.480125 22.48524861 -16.53125 20.39453125 C-16.55957745 14.05528213 -16.28308804 9.00649676 -11.83984375 4.16015625 C-8.01696007 1.04411005 -5.00886529 -0.04770348 0 0 Z " fill="#181817" transform="translate(217.4375,70.9375)"/>
<path d="M0 0 C22 0 22 0 27.30859375 3.06640625 C31.16643233 8.38776478 31.24051528 14.54625086 31.09790039 20.92651367 C31.06264243 22.92940892 31.12197217 24.93323017 31.18164062 26.93554688 C31.14693143 33.24315399 30.66295921 38.33319003 26.74609375 43.44140625 C21 47 21 47 0 47 C0 31.49 0 15.98 0 0 Z " fill="#1A1A1A" transform="translate(144,73)"/>
<path d="M0 0 C1.17231674 -0.00137466 2.34463348 -0.00274933 3.55247498 -0.00416565 C5.49131813 0.00122726 5.49131813 0.00122726 7.46932983 0.00672913 C8.83906553 0.00701109 10.20880138 0.00685309 11.57853699 0.00628662 C15.30351953 0.00599899 19.02847006 0.01189024 22.75344515 0.01886058 C26.64387634 0.02509976 30.53430822 0.02569836 34.42474365 0.02688599 C41.79474694 0.02999763 49.16473545 0.03820879 56.53473222 0.04823548 C64.92397608 0.05940177 73.31322063 0.06490837 81.70247006 0.06993091 C98.96249308 0.08039153 116.22250169 0.09798776 133.48251343 0.12025452 C133.48251343 0.78025452 133.48251343 1.44025452 133.48251343 2.12025452 C134.47251343 2.61525452 134.47251343 2.61525452 135.48251343 3.12025452 C134.82251343 3.12025452 134.16251343 3.12025452 133.48251343 3.12025452 C133.48251343 5.76025452 133.48251343 8.40025452 133.48251343 11.12025452 C132.82251343 11.12025452 132.16251343 11.12025452 131.48251343 11.12025452 C131.48251343 10.46025452 131.48251343 9.80025452 131.48251343 9.12025452 C60.69751343 8.62525452 60.69751343 8.62525452 -11.51748657 8.12025452 C-11.51748657 7.46025452 -11.51748657 6.80025452 -11.51748657 6.12025452 C-10.85748657 5.79025452 -10.19748657 5.46025452 -9.51748657 5.12025452 C-9.18748657 4.46025452 -8.85748657 3.80025452 -8.51748657 3.12025452 C-6.63530301 -0.6441126 -3.83378151 -0.00345386 0 0 Z " fill="#DA9799" transform="translate(100.51748657226563,59.87974548339844)"/>
<path d="M0 0 C1.50080005 -0.02099581 3.00213759 -0.01425979 4.50281906 0.01396656 C5.74526198 0.00755837 5.74526198 0.00755837 7.01280475 0.00102073 C9.79247408 -0.00722511 12.5706395 0.02030129 15.35017014 0.04761219 C17.34088226 0.04902232 19.33159698 0.04823137 21.32230759 0.04539967 C26.7312161 0.04396274 32.1395723 0.07339759 37.54835224 0.10826945 C43.19912111 0.13948673 48.84990208 0.14246004 54.50074387 0.14839649 C65.20343834 0.16394852 75.90587801 0.20499554 86.60846019 0.25514394 C98.79208202 0.31099499 110.9757159 0.33851327 123.15943384 0.36362112 C148.22413053 0.41591007 173.28860091 0.50387892 198.35309982 0.61523914 C198.35309982 2.26523914 198.35309982 3.91523914 198.35309982 5.61523914 C130.37309982 5.61523914 62.39309982 5.61523914 -7.64690018 5.61523914 C-3.64690018 0.61523914 -3.64690018 0.61523914 0 0 Z " fill="#D91520" transform="translate(35.64690017700195,125.38476085662842)"/>
<path d="M0 0 C2.31 0 4.62 0 7 0 C7.01981934 1.00901367 7.03963867 2.01802734 7.06005859 3.05761719 C7.13623336 6.80754196 7.22493216 10.55708471 7.31738281 14.30664062 C7.35562358 15.92830859 7.39048503 17.55005996 7.421875 19.171875 C7.46763257 21.50551117 7.52560816 23.83857562 7.5859375 26.171875 C7.59748871 26.89493835 7.60903992 27.61800171 7.62094116 28.36297607 C7.72853178 32.04723208 7.97721889 34.86291492 10 38 C13.79547921 37.03223902 13.79547921 37.03223902 17 35 C17.15996166 32.40846893 17.25938697 29.8404798 17.31640625 27.24609375 C17.33718735 26.47064713 17.35796844 25.6952005 17.37937927 24.89625549 C17.44495802 22.41009692 17.50379799 19.92382955 17.5625 17.4375 C17.60567733 15.75584796 17.64929136 14.07420706 17.69335938 12.39257812 C17.80064779 8.26183129 17.90189132 4.13097464 18 0 C20.64 0 23.28 0 26 0 C26.1488062 5.15937788 26.25742793 10.31749559 26.32958984 15.47851562 C26.35968276 17.2323178 26.4005686 18.98597045 26.45263672 20.73925781 C26.52579057 23.26665168 26.55952866 25.79204973 26.5859375 28.3203125 C26.61690521 29.09867462 26.64787292 29.87703674 26.67977905 30.6789856 C26.68240496 34.96861533 26.18581845 37.32950529 23.17822266 40.49487305 C19.97865818 43.43188445 17.36123501 43.77835906 13 43.6875 C11.2365625 43.69330078 11.2365625 43.69330078 9.4375 43.69921875 C5.30077944 42.85777218 2.56174082 41.33188915 0 38 C-0.80421084 35.04809001 -0.70287246 32.24042148 -0.5859375 29.19921875 C-0.57744781 28.36284378 -0.56895813 27.52646881 -0.56021118 26.66474915 C-0.5267347 24.00433224 -0.45147337 21.34699386 -0.375 18.6875 C-0.34489263 16.8796012 -0.31751817 15.07165469 -0.29296875 13.26367188 C-0.22696313 8.84126933 -0.12348713 4.42115579 0 0 Z " fill="#31312F" transform="translate(107,73)"/>
<path d="M0 0 C0 14.19 0 28.38 0 43 C-1.98 43 -3.96 43 -6 43 C-6 40.36 -6 37.72 -6 35 C-5.34 35 -4.68 35 -4 35 C-4 28.07 -4 21.14 -4 14 C-4.66 14.99 -5.32 15.98 -6 17 C-6 14.36 -6 11.72 -6 9 C-16.8021863 17.43656873 -16.8021863 17.43656873 -25 28 C-27.64 28 -30.28 28 -33 28 C-32.67 28.66 -32.34 29.32 -32 30 C-31.01 29.67 -30.02 29.34 -29 29 C-26.26134713 28.92948886 -23.54972412 28.90642235 -20.8125 28.9375 C-20.06291016 28.94201172 -19.31332031 28.94652344 -18.54101562 28.95117188 C-16.69397617 28.96293646 -14.84697787 28.98087135 -13 29 C-13 30.32 -13 31.64 -13 33 C-19.6 33 -26.2 33 -33 33 C-33.33 34.65 -33.66 36.3 -34 38 C-35.50928059 40.75011206 -37.25239655 42.48037574 -40 44 C-44.05077012 44.50054102 -47.94092067 44.35467683 -52 44 C-45.14524172 35.83333272 -37.70655275 28.26239649 -30.23364258 20.66381836 C-28.53255449 18.92586711 -26.84049105 17.1790377 -25.1574707 15.42358398 C-22.71357768 12.87640441 -20.2415298 10.35982066 -17.76171875 7.84765625 C-17.01766281 7.0602858 -16.27360687 6.27291534 -15.50700378 5.46168518 C-14.78628189 4.7435112 -14.06556 4.02533722 -13.32299805 3.28540039 C-12.70377975 2.6492128 -12.08456146 2.01302521 -11.44657898 1.3575592 C-9 0 -9 0 0 0 Z " fill="#DA0714" transform="translate(93,77)"/>
<path d="M0 0 C4.62 0 9.24 0 14 0 C14 15.51 14 31.02 14 47 C9.38 47 4.76 47 0 47 C0 31.49 0 15.98 0 0 Z " fill="#2A2A2A" transform="translate(181,73)"/>
<path d="M0 0 C1.21558594 -0.03222656 2.43117187 -0.06445312 3.68359375 -0.09765625 C8.43361923 0.78398434 11.55479501 3.7187195 14.75854492 7.1809082 C18.19942496 12.67728215 17.73859579 18.38857104 17.5 24.6875 C17.50966797 25.97140625 17.51933594 27.2553125 17.52929688 28.578125 C17.41229882 35.42782924 17.0269512 40.09677396 12.03735352 45.03662109 C10.5625 46.0625 10.5625 46.0625 8.5625 46.0625 C8.5625 46.7225 8.5625 47.3825 8.5625 48.0625 C6.05772084 48.2813642 3.57234466 48.43789778 1.0625 48.5625 C0.36640625 48.62953125 -0.3296875 48.6965625 -1.046875 48.765625 C-5.59765792 48.93417252 -8.36827767 47.89671485 -11.90625 45 C-16.73010666 39.62375699 -16.64854147 33.52701318 -16.48046875 26.65380859 C-16.43750354 24.56267236 -16.480125 22.48524861 -16.53125 20.39453125 C-16.55957745 14.05528213 -16.28308804 9.00649676 -11.83984375 4.16015625 C-8.01696007 1.04411005 -5.00886529 -0.04770348 0 0 Z M-11.4375 10.0625 C-12.44515186 14.8275984 -12.17981878 19.64019596 -12.125 24.5 C-12.15271484 25.81033203 -12.18042969 27.12066406 -12.20898438 28.47070312 C-12.3817176 36.30565345 -12.3817176 36.30565345 -8.76953125 42.921875 C-5.29223416 45.15582436 -3.52875527 45.90163578 0.5625 45.875 C2.0475 45.91560547 2.0475 45.91560547 3.5625 45.95703125 C7.28866566 44.84597404 9.01137947 43.48845844 11.38476562 40.44067383 C13.86523958 35.43190584 13.41809404 29.97035787 13.3125 24.5 C13.33570313 23.29408203 13.35890625 22.08816406 13.3828125 20.84570312 C13.43296879 13.4700505 13.43296879 13.4700505 9.92578125 7.265625 C6.75134281 4.7708843 4.05323474 4.28407738 0 4.375 C-1.09441406 4.37113281 -2.18882812 4.36726563 -3.31640625 4.36328125 C-7.42397491 5.28350001 -8.78962739 6.82670058 -11.4375 10.0625 Z " fill="#2C2C2C" transform="translate(217.4375,70.9375)"/>
<path d="M0 0 C2.44814491 -0.36914349 2.44814491 -0.36914349 5.59341431 -0.36076355 C6.78255936 -0.36488754 7.97170441 -0.36901154 9.19688416 -0.3732605 C10.50814774 -0.36247467 11.81941132 -0.35168884 13.17041016 -0.34057617 C14.55984987 -0.3397303 15.94929093 -0.34020426 17.33872986 -0.34190369 C21.11753326 -0.34276664 24.89605267 -0.32509263 28.67478991 -0.30418181 C32.62126264 -0.28546483 36.56774144 -0.28366852 40.51425171 -0.28010559 C47.99055879 -0.27077044 55.46673473 -0.24613687 62.94298398 -0.21605712 C71.45312807 -0.18255874 79.96327831 -0.16603861 88.47347188 -0.15097082 C105.98239053 -0.11958852 123.49118141 -0.06679958 141 0 C141 0.99 141 1.98 141 3 C93.81 3 46.62 3 -2 3 C-1.34 2.01 -0.68 1.02 0 0 Z " fill="#E10208" transform="translate(92,64)"/>
<path d="M0 0 C0.33 0 0.66 0 1 0 C1 13.2 1 26.4 1 40 C0.67 40 0.34 40 0 40 C0 37.69 0 35.38 0 33 C-0.66 33 -1.32 33 -2 33 C-2 35.64 -2 38.28 -2 41 C-2.33 41 -2.66 41 -3 41 C-3 38.03 -3 35.06 -3 32 C-11.58 32.33 -20.16 32.66 -29 33 C-29 32.34 -29 31.68 -29 31 C-22.4 31 -15.8 31 -9 31 C-9 29.68 -9 28.36 -9 27 C-10.13179687 27.08378906 -11.26359375 27.16757813 -12.4296875 27.25390625 C-13.91143781 27.35706608 -15.39320982 27.45991453 -16.875 27.5625 C-17.62136719 27.61857422 -18.36773437 27.67464844 -19.13671875 27.73242188 C-24.7734375 28.11328125 -24.7734375 28.11328125 -27 27 C-27.33 27.66 -27.66 28.32 -28 29 C-28.33 28.01 -28.66 27.02 -29 26 C-26.36 26 -23.72 26 -21 26 C-20.74025391 25.41573242 -20.48050781 24.83146484 -20.21289062 24.22949219 C-18.915344 21.84438836 -17.50658878 20.24809363 -15.59375 18.328125 C-14.93246094 17.66425781 -14.27117187 17.00039062 -13.58984375 16.31640625 C-12.90019531 15.63449219 -12.21054688 14.95257813 -11.5 14.25 C-10.81035156 13.55261719 -10.12070313 12.85523437 -9.41015625 12.13671875 C-8.74886719 11.47800781 -8.08757812 10.81929687 -7.40625 10.140625 C-6.80103516 9.53766602 -6.19582031 8.93470703 -5.57226562 8.31347656 C-4 7 -4 7 -2 7 C-1.67 8.65 -1.34 10.3 -1 12 C-0.67 8.04 -0.34 4.08 0 0 Z " fill="#D91119" transform="translate(89,79)"/>
<path d="M0 0 C0.70125 0.00515625 1.4025 0.0103125 2.125 0.015625 C2.82625 0.01046875 3.5275 0.0053125 4.25 0 C6.125 0.265625 6.125 0.265625 8.125 2.265625 C8.38378906 4.48046875 8.38378906 4.48046875 8.390625 7.203125 C8.39320313 8.18023437 8.39578125 9.15734375 8.3984375 10.1640625 C8.39070312 11.18757813 8.38296875 12.21109375 8.375 13.265625 C8.38273438 14.28914063 8.39046875 15.31265625 8.3984375 16.3671875 C8.39585937 17.34429687 8.39328125 18.32140625 8.390625 19.328125 C8.38836914 20.22660156 8.38611328 21.12507813 8.38378906 22.05078125 C8.125 24.265625 8.125 24.265625 6.125 26.265625 C4.25 26.49609375 4.25 26.49609375 2.125 26.453125 C1.42375 26.44667969 0.7225 26.44023438 0 26.43359375 C-1.875 26.265625 -1.875 26.265625 -3.875 25.265625 C-3.93286668 21.47402203 -3.96855054 17.68253189 -4 13.890625 C-4.01675781 12.81039062 -4.03351563 11.73015625 -4.05078125 10.6171875 C-4.05722656 9.5859375 -4.06367188 8.5546875 -4.0703125 7.4921875 C-4.08078613 6.53908691 -4.09125977 5.58598633 -4.10205078 4.60400391 C-3.81423254 1.63978551 -3.04047582 0.43073407 0 0 Z " fill="#F2F2F2" transform="translate(215.875,82.734375)"/>
<path d="M0 0 C8 0 8 0 9.97509766 1.20117188 C11.29653709 3.52045861 11.38775823 5.11448334 11.3984375 7.78125 C11.40230469 8.70550781 11.40617188 9.62976563 11.41015625 10.58203125 C11.39855469 11.54496094 11.38695312 12.50789063 11.375 13.5 C11.38660156 14.46292969 11.39820313 15.42585938 11.41015625 16.41796875 C11.40628906 17.34222656 11.40242187 18.26648438 11.3984375 19.21875 C11.39505371 20.06373047 11.39166992 20.90871094 11.38818359 21.77929688 C11 24 11 24 9.97509766 25.79882812 C8 27 8 27 0 27 C0 18.09 0 9.18 0 0 Z " fill="#F7F7F6" transform="translate(153,83)"/>
<path d="M0 0 C1.98 0 3.96 0 6 0 C6 12.87 6 25.74 6 39 C4.02 39 2.04 39 0 39 C0 26.13 0 13.26 0 0 Z " fill="#161614" transform="translate(185,77)"/>
<path d="M0 0 C22 0 22 0 27.30859375 3.06640625 C31.16643233 8.38776478 31.24051528 14.54625086 31.09790039 20.92651367 C31.06264243 22.92940892 31.12197217 24.93323017 31.18164062 26.93554688 C31.14693143 33.24315399 30.66295921 38.33319003 26.74609375 43.44140625 C21 47 21 47 0 47 C0 31.49 0 15.98 0 0 Z M1 2 C1 16.19 1 30.38 1 45 C18.12163244 46.41358602 18.12163244 46.41358602 25.12890625 42.44140625 C29.44060544 37.49508467 29.16371046 31.25182415 28.98803711 24.98413086 C28.93744539 22.93528831 28.96728443 20.89850407 29.00585938 18.84960938 C29.00211914 13.35726901 29.00211914 13.35726901 28 8 C20.0057354 -0.16930458 20.0057354 -0.16930458 1 2 Z " fill="#020202" transform="translate(144,73)"/>
<path d="M0 0 C1.98 0 3.96 0 6 0 C6 11.22 6 22.44 6 34 C3.525 34.495 3.525 34.495 1 35 C1 35.66 1 36.32 1 37 C0.01 37 -0.98 37 -2 37 C-2.66 37.99 -3.32 38.98 -4 40 C-5.65 39.34 -7.3 38.68 -9 38 C-9 37.67 -9 37.34 -9 37 C-8.05125 36.71125 -7.1025 36.4225 -6.125 36.125 C-2.94788422 35.23174891 -2.94788422 35.23174891 -1 33 C-0.75484303 30.49624532 -0.62666342 28.09450521 -0.5859375 25.5859375 C-0.56657135 24.85629791 -0.5472052 24.12665833 -0.5272522 23.37490845 C-0.46741578 21.04172498 -0.42105577 18.70849227 -0.375 16.375 C-0.33682386 14.79424918 -0.29777235 13.21351924 -0.2578125 11.6328125 C-0.16171122 7.7553777 -0.07769588 3.87784551 0 0 Z " fill="#1B1B1A" transform="translate(126,74)"/>
<path d="M0 0 C0.66 0 1.32 0 2 0 C2.19880513 5.40749946 2.34340657 10.81284233 2.43945312 16.22314453 C2.47951363 18.06043579 2.5339819 19.89747471 2.60351562 21.73388672 C3.23908676 38.95973369 3.23908676 38.95973369 -1.53125 44.1875 C-5.56079053 47.22839329 -9.01158372 48.23383201 -14 48 C-14.99 48.04640625 -14.99 48.04640625 -16 48.09375 C-20.18573898 48.02834783 -23.1501667 46.68119514 -26.46875 44.15625 C-32.54120137 37.50150877 -30.82655096 27.89482431 -30.5 19.5 C-30.4598267 17.7058085 -30.42333268 15.91153062 -30.390625 14.1171875 C-30.30291535 9.74264302 -30.16513544 5.37227844 -30 1 C-29.34 1 -28.68 1 -28 1 C-28.00112793 2.08941895 -28.00225586 3.17883789 -28.00341797 4.30126953 C-27.99973427 8.36087536 -27.95682987 12.41930001 -27.90234375 16.47851562 C-27.88422637 18.23201874 -27.87660752 19.98566416 -27.87988281 21.73925781 C-27.88275243 24.26738649 -27.84731472 26.79259041 -27.8046875 29.3203125 C-27.81378143 30.09867462 -27.82287537 30.87703674 -27.83224487 31.6789856 C-27.71940179 35.94826393 -27.15686612 38.34571611 -24.16455078 41.49267578 C-20.97753528 44.42694644 -18.35254016 44.80727027 -14 44.75 C-12.824375 44.76546875 -11.64875 44.7809375 -10.4375 44.796875 C-5.91770731 43.74910488 -3.60698417 41.81907687 -1 38 C-0.16671259 35.02070097 -0.16030954 32.18170676 -0.1953125 29.1015625 C-0.18160614 28.26660248 -0.16789978 27.43164246 -0.15377808 26.57138062 C-0.11658653 23.92203352 -0.12018523 21.27457031 -0.125 18.625 C-0.10686547 16.82158543 -0.08606039 15.0181956 -0.0625 13.21484375 C-0.01075124 8.80958169 0.00443788 4.40554925 0 0 Z " fill="#141413" transform="translate(134,73)"/>
<path d="M0 0 C20 0 20 0 27 6 C28.18868698 10.28714524 28.05108977 14.44721292 27.9675293 18.88549805 C27.93757053 20.93268063 27.98756506 22.96728895 28.04492188 25.01367188 C27.99602277 36.00510375 27.99602277 36.00510375 24.12890625 40.44140625 C19 43 19 43 0 43 C0 28.81 0 14.62 0 0 Z M2 1 C2 14.2 2 27.4 2 41 C7.61 41 13.22 41 19 41 C25.20259367 35.39139584 25.20259367 35.39139584 25.796875 28.5 C25.80460937 27.283125 25.81234375 26.06625 25.8203125 24.8125 C25.79710937 23.554375 25.77390625 22.29625 25.75 21 C25.77320313 19.741875 25.79640625 18.48375 25.8203125 17.1875 C25.81257813 15.970625 25.80484375 14.75375 25.796875 13.5 C25.79010742 12.3965625 25.78333984 11.293125 25.77636719 10.15625 C25.04525941 6.00977681 25.04525941 6.00977681 19 1 C13.39 1 7.78 1 2 1 Z " fill="#DFDFDF" transform="translate(145,75)"/>
<path d="M0 0 C2.475 0.495 2.475 0.495 5 1 C5 1.33 5 1.66 5 2 C72.65 2.33 140.3 2.66 210 3 C210 3.33 210 3.66 210 4 C140.7 4 71.4 4 0 4 C0 2.68 0 1.36 0 0 Z " fill="#FCF8EE" transform="translate(24,128)"/>
<path d="M0 0 C1.57587891 -0.02707031 1.57587891 -0.02707031 3.18359375 -0.0546875 C8.26905965 1.34455052 11.6142718 3.43551424 14.5625 7.875 C15.70560763 12.73946259 15.63641984 17.3993965 15.5 22.375 C15.52255859 23.66792969 15.54511719 24.96085937 15.56835938 26.29296875 C15.45486088 36.81049581 15.45486088 36.81049581 11.44140625 41.23046875 C7.93321917 44.04792701 5.10850847 44.79404707 0.5625 44.6875 C-1.17 44.69716797 -1.17 44.69716797 -2.9375 44.70703125 C-6.81534042 43.78517856 -9.16721828 42.84420813 -12.06347656 40.11547852 C-14.86861407 35.54142967 -14.46409243 30.21259237 -14.35009766 24.98950195 C-14.31260212 22.9430736 -14.34973525 20.90742245 -14.39453125 18.86132812 C-14.31857128 7.88511241 -14.31857128 7.88511241 -10.28515625 3.48828125 C-6.95990071 0.84830941 -4.30691573 -0.07380272 0 0 Z M-11.4375 7.875 C-12.44515186 12.6400984 -12.17981878 17.45269596 -12.125 22.3125 C-12.15271484 23.62283203 -12.18042969 24.93316406 -12.20898438 26.28320312 C-12.3817176 34.11815345 -12.3817176 34.11815345 -8.76953125 40.734375 C-5.29223416 42.96832436 -3.52875527 43.71413578 0.5625 43.6875 C2.0475 43.72810547 2.0475 43.72810547 3.5625 43.76953125 C7.28866566 42.65847404 9.01137947 41.30095844 11.38476562 38.25317383 C13.86523958 33.24440584 13.41809404 27.78285787 13.3125 22.3125 C13.33570313 21.10658203 13.35890625 19.90066406 13.3828125 18.65820312 C13.43296879 11.2825505 13.43296879 11.2825505 9.92578125 5.078125 C6.75134281 2.5833843 4.05323474 2.09657738 0 2.1875 C-1.09441406 2.18363281 -2.18882812 2.17976563 -3.31640625 2.17578125 C-7.42397491 3.09600001 -8.78962739 4.63920058 -11.4375 7.875 Z " fill="#D9D9D8" transform="translate(217.4375,73.125)"/>
<path d="M0 0 C0 15.18 0 30.36 0 46 C-0.66 46 -1.32 46 -2 46 C-2 31.48 -2 16.96 -2 2 C-11.93156136 2.20464533 -11.93156136 2.20464533 -18.19604492 7.06079102 C-19.05610641 7.92160782 -19.91616791 8.78242462 -20.80229187 9.66932678 C-21.68609024 10.60473801 -22.56988861 11.54014923 -23.48046875 12.50390625 C-24.42660136 13.46872611 -25.37499302 14.43133535 -26.32551575 15.39183044 C-28.80274974 17.90696606 -31.24845709 20.45064669 -33.68847656 23.00183105 C-36.19103372 25.60730282 -38.72270038 28.18415436 -41.25195312 30.76367188 C-46.19657868 35.8150464 -51.10841501 40.8972013 -56 46 C-56.66 45.67 -57.32 45.34 -58 45 C-52.39641882 39.0939973 -46.7576536 33.22486207 -41.07174397 27.39818573 C-38.43197855 24.69082532 -35.80554573 21.97286728 -33.20678711 19.22607422 C-30.69390943 16.57099066 -28.14971861 13.9498341 -25.58159447 11.34819031 C-24.61203615 10.35477651 -23.65390919 9.35006025 -22.70830727 8.33381653 C-21.37272339 6.9026531 -19.99013341 5.51581276 -18.60668945 4.13085938 C-17.83613724 3.33143921 -17.06558502 2.53201904 -16.27168274 1.70837402 C-13 0 -13 0 0 0 Z " fill="#C8131C" transform="translate(96,74)"/>
<path d="M0 0 C3.3 0 6.6 0 10 0 C10 14.19 10 28.38 10 43 C6.7 43 3.4 43 0 43 C0 28.81 0 14.62 0 0 Z M2 2 C2 14.87 2 27.74 2 41 C3.98 41 5.96 41 8 41 C8 28.13 8 15.26 8 2 C6.02 2 4.04 2 2 2 Z " fill="#CBCBCA" transform="translate(183,75)"/>
<path d="M0 0 C0 5.94 0 11.88 0 18 C-5.94 18 -11.88 18 -18 18 C-16.3357249 14.67144979 -15.31939585 13.0638099 -12.8125 10.546875 C-12.19632812 9.928125 -11.58015625 9.309375 -10.9453125 8.671875 C-10.30335937 8.03765625 -9.66140625 7.4034375 -9 6.75 C-8.35804687 6.1003125 -7.71609375 5.450625 -7.0546875 4.78125 C-6.43851563 4.16765625 -5.82234375 3.5540625 -5.1875 2.921875 C-4.62417969 2.36081055 -4.06085938 1.79974609 -3.48046875 1.22167969 C-2 0 -2 0 0 0 Z " fill="#FAF9F8" transform="translate(86,87)"/>
<path d="M0 0 C2.31 0 4.62 0 7 0 C7 13.86 7 27.72 7 42 C5.35 42 3.7 42 2 42 C2 39.36 2 36.72 2 34 C2.66 34 3.32 34 4 34 C4 27.07 4 20.14 4 13 C3.01 14.485 3.01 14.485 2 16 C2 13.36 2 10.72 2 8 C0.02 9.32 -1.96 10.64 -4 12 C-4.33 10.02 -4.66 8.04 -5 6 C-4.34 6 -3.68 6 -3 6 C-2.67 5.01 -2.34 4.02 -2 3 C-0.68 3.33 0.64 3.66 2 4 C2 3.34 2 2.68 2 2 C1.01 1.67 0.02 1.34 -1 1 C-0.67 0.67 -0.34 0.34 0 0 Z " fill="#E2030E" transform="translate(85,78)"/>
<path d="M0 0 C0.66 0.33 1.32 0.66 2 1 C2.14509751 5.41632177 2.23400818 9.83203193 2.3125 14.25 C2.35439453 15.50425781 2.39628906 16.75851563 2.43945312 18.05078125 C2.45556641 19.25605469 2.47167969 20.46132812 2.48828125 21.703125 C2.51446533 22.81333008 2.54064941 23.92353516 2.56762695 25.06738281 C2 28 2 28 -0.53051758 30.39355469 C-1.34544678 30.92368164 -2.16037598 31.45380859 -3 32 C-4.25406138 26.21354356 -4.11186913 20.51131884 -4.0625 14.625 C-4.05798828 13.60277344 -4.05347656 12.58054687 -4.04882812 11.52734375 C-4.037103 9.01816806 -4.02069176 6.5091151 -4 4 C-3.01 4.33 -2.02 4.66 -1 5 C-0.67 3.35 -0.34 1.7 0 0 Z " fill="#121211" transform="translate(228,81)"/>
<path d="M0 0 C2.44814491 -0.36914349 2.44814491 -0.36914349 5.59341431 -0.36076355 C6.78255936 -0.36488754 7.97170441 -0.36901154 9.19688416 -0.3732605 C10.50814774 -0.36247467 11.81941132 -0.35168884 13.17041016 -0.34057617 C14.55984987 -0.3397303 15.94929093 -0.34020426 17.33872986 -0.34190369 C21.11753326 -0.34276664 24.89605267 -0.32509263 28.67478991 -0.30418181 C32.62126264 -0.28546483 36.56774144 -0.28366852 40.51425171 -0.28010559 C47.99055879 -0.27077044 55.46673473 -0.24613687 62.94298398 -0.21605712 C71.45312807 -0.18255874 79.96327831 -0.16603861 88.47347188 -0.15097082 C105.98239053 -0.11958852 123.49118141 -0.06679958 141 0 C140.67 0.99 140.34 1.98 140 3 C140 2.34 140 1.68 140 1 C122.28503108 1.10710028 104.57010751 1.21983636 86.85521793 1.33933926 C78.63046269 1.39469027 70.4057031 1.44817529 62.1809082 1.49731445 C55.01476832 1.54013334 47.84866062 1.58640544 40.6825704 1.63687855 C36.88584902 1.66349806 33.08913409 1.6883515 29.29237556 1.70907402 C25.7227797 1.72861115 22.15324521 1.75274594 18.58370399 1.78049088 C16.64087613 1.79437071 14.69801491 1.80330062 12.75515747 1.81211853 C11.03660805 1.82680176 11.03660805 1.82680176 9.28334045 1.84178162 C8.28135148 1.84823417 7.27936251 1.85468672 6.24701023 1.8613348 C4.03006172 1.74920135 4.03006172 1.74920135 3 3 C1.33382885 3.04063832 -0.33388095 3.042721 -2 3 C-1.34 2.01 -0.68 1.02 0 0 Z " fill="#D4000A" transform="translate(92,64)"/>
<path d="M0 0 C3 1 3 1 4 3 C3.34 3 2.68 3 2 3 C2 3.66 2 4.32 2 5 C3.32 5 4.64 5 6 5 C4.54308827 8.3994607 2.8814072 10.66372389 0 13 C-3.015625 13.390625 -3.015625 13.390625 -6.25 13.25 C-7.32765625 13.21390625 -8.4053125 13.1778125 -9.515625 13.140625 C-10.74539062 13.07101563 -10.74539062 13.07101563 -12 13 C-8.19524578 8.43969176 -4.25030379 4.14910608 0 0 Z " fill="#DC121C" transform="translate(53,108)"/>
<path d="M0 0 C0.66 0 1.32 0 2 0 C2.19880513 5.40749946 2.34340657 10.81284233 2.43945312 16.22314453 C2.47951363 18.06043579 2.5339819 19.89747471 2.60351562 21.73388672 C3.23904143 38.95850536 3.23904143 38.95850536 -1.5625 44.25 C-4.56716353 46.52682578 -6.01343596 47.00196624 -9.84375 47.5625 C-11.65359375 47.2840625 -11.65359375 47.2840625 -13.5 47 C-14.7271875 46.835 -15.954375 46.67 -17.21875 46.5 C-18.1365625 46.335 -19.054375 46.17 -20 46 C-20 45.67 -20 45.34 -20 45 C-19.13117188 44.99742188 -18.26234375 44.99484375 -17.3671875 44.9921875 C-16.21476562 44.95351562 -15.06234375 44.91484375 -13.875 44.875 C-12.73804687 44.85179687 -11.60109375 44.82859375 -10.4296875 44.8046875 C-5.91938762 43.74646224 -3.60410545 41.81346988 -1 38 C-0.16665985 35.02071953 -0.16030961 32.18170025 -0.1953125 29.1015625 C-0.18160614 28.26660248 -0.16789978 27.43164246 -0.15377808 26.57138062 C-0.11658653 23.92203352 -0.12018523 21.27457031 -0.125 18.625 C-0.10686547 16.82158543 -0.08606039 15.0181956 -0.0625 13.21484375 C-0.01075124 8.80958169 0.00443788 4.40554925 0 0 Z " fill="#171716" transform="translate(134,73)"/>
<path d="M0 0 C1 1 1 1 1.11352539 3.59204102 C1.10828857 4.71795654 1.10305176 5.84387207 1.09765625 7.00390625 C1.09443359 8.21884766 1.09121094 9.43378906 1.08789062 10.68554688 C1.07951172 11.96494141 1.07113281 13.24433594 1.0625 14.5625 C1.05798828 15.84576172 1.05347656 17.12902344 1.04882812 18.45117188 C1.03699545 21.63416022 1.02051068 24.81705762 1 28 C0.67 28 0.34 28 0 28 C0 20.74 0 13.48 0 6 C-1.32 6.33 -2.64 6.66 -4 7 C-3.67 12.94 -3.34 18.88 -3 25 C-3.66 25.33 -4.32 25.66 -5 26 C-5.01981934 25.37955811 -5.03963867 24.75911621 -5.06005859 24.11987305 C-5.15531845 21.30865463 -5.26499302 18.49817834 -5.375 15.6875 C-5.42140625 14.22280273 -5.42140625 14.22280273 -5.46875 12.72851562 C-5.50742188 11.79072266 -5.54609375 10.85292969 -5.5859375 9.88671875 C-5.6173584 9.02264404 -5.6487793 8.15856934 -5.68115234 7.26831055 C-5.87188037 4.72257555 -5.87188037 4.72257555 -8 2 C-6.68 2 -5.36 2 -4 2 C-4 1.34 -4 0.68 -4 0 C-5.32 0.33 -6.64 0.66 -8 1 C-8.33 0.34 -8.66 -0.32 -9 -1 C-5.78158126 -2.60920937 -3.28446801 -1.0749168 0 0 Z " fill="#0D0D0C" transform="translate(169,81)"/>
<path d="M0 0 C0 3.24986616 -0.76815277 5.02907432 -2 8 C-2.35858516 9.32676508 -2.7018576 10.65835921 -3 12 C-3.66 12 -4.32 12 -5 12 C-5 12.66 -5 13.32 -5 14 C-2.03 14.33 0.94 14.66 4 15 C4 15.33 4 15.66 4 16 C-1.94 16 -7.88 16 -14 16 C-12.39592098 12.79184196 -11.58286066 11.33641682 -9.1796875 8.984375 C-8.64472656 8.45585938 -8.10976562 7.92734375 -7.55859375 7.3828125 C-7.00300781 6.84398438 -6.44742188 6.30515625 -5.875 5.75 C-5.31167969 5.19570312 -4.74835938 4.64140625 -4.16796875 4.0703125 C-2.78313972 2.70895515 -1.39216796 1.35385141 0 0 Z " fill="#EDCFCE" transform="translate(82,89)"/>
<path d="M0 0 C0.33 0 0.66 0 1 0 C1 9.57 1 19.14 1 29 C-0.65 29.33 -2.3 29.66 -4 30 C-4 30.66 -4 31.32 -4 32 C-4.99 32 -5.98 32 -7 32 C-7.66 32.99 -8.32 33.98 -9 35 C-10.65 34.34 -12.3 33.68 -14 33 C-14 32.67 -14 32.34 -14 32 C-13.05125 31.71125 -12.1025 31.4225 -11.125 31.125 C-7.94788422 30.23174891 -7.94788422 30.23174891 -6 28 C-5.62760773 25.18597317 -5.62760773 25.18597317 -5.5859375 21.8984375 C-5.54726562 20.68671875 -5.50859375 19.475 -5.46875 18.2265625 C-5.42234375 16.32003906 -5.42234375 16.32003906 -5.375 14.375 C-5.33632812 13.09625 -5.29765625 11.8175 -5.2578125 10.5 C-5.16328951 7.33347983 -5.07773643 4.1669696 -5 1 C-4.67 1 -4.34 1 -4 1 C-3.97494385 1.7520874 -3.9498877 2.5041748 -3.92407227 3.27905273 C-3.80849486 6.66539196 -3.68559655 10.05142613 -3.5625 13.4375 C-3.52318359 14.62150391 -3.48386719 15.80550781 -3.44335938 17.02539062 C-3.38051758 18.71245117 -3.38051758 18.71245117 -3.31640625 20.43359375 C-3.27974854 21.47572021 -3.24309082 22.51784668 -3.20532227 23.59155273 C-3.26484659 25.9499826 -3.26484659 25.9499826 -2 27 C-0.68638302 24.37276604 -0.78746091 22.27389439 -0.68359375 19.3359375 C-0.64169922 18.21445313 -0.59980469 17.09296875 -0.55664062 15.9375 C-0.51732422 14.761875 -0.47800781 13.58625 -0.4375 12.375 C-0.39431641 11.19164063 -0.35113281 10.00828125 -0.30664062 8.7890625 C-0.20032574 5.85949672 -0.09829358 2.92984412 0 0 Z " fill="#131311" transform="translate(131,79)"/>
<path d="M0 0 C0.33 0 0.66 0 1 0 C0.99887207 0.88260498 0.99774414 1.76520996 0.99658203 2.67456055 C1.00653657 5.96496744 1.04317215 9.25286901 1.09765625 12.54272461 C1.11577007 13.96352731 1.12339307 15.38450554 1.12011719 16.80541992 C0.86458625 24.70385277 0.86458625 24.70385277 3.14306641 32.05957031 C5.69735776 34.45310207 8.10709406 35.01598063 11.5078125 35.5234375 C12.70148438 35.47445312 13.89515625 35.42546875 15.125 35.375 C16.32382813 35.34148437 17.52265625 35.30796875 18.7578125 35.2734375 C21.32269664 35.05712197 23.54960421 34.74365245 26 34 C25.67 34.66 25.34 35.32 25 36 C24.34 36 23.68 36 23 36 C23 36.66 23 37.32 23 38 C20.47555978 38.19092405 17.96574051 38.32835129 15.4375 38.4375 C14.73302734 38.49615234 14.02855469 38.55480469 13.30273438 38.61523438 C9.12991256 38.74984153 6.32573844 38.06264892 3 35.46875 C-1.99477781 29.83400065 -0.7322417 22.10690613 -0.4375 15.0625 C-0.40234331 13.60098614 -0.37041192 12.13939094 -0.34179688 10.67773438 C-0.26510615 7.11678426 -0.14456804 3.55891561 0 0 Z " fill="#1D1D1D" transform="translate(203,81)"/>
<path d="M0 0 C0.67933594 0.03609375 1.35867187 0.0721875 2.05859375 0.109375 C3.70825181 0.20231348 5.35493948 0.34577558 7 0.5 C7 0.83 7 1.16 7 1.5 C2.38 1.5 -2.24 1.5 -7 1.5 C-7.66 2.82 -8.32 4.14 -9 5.5 C-11 7.75 -11 7.75 -13 9.5 C-13.66 9.5 -14.32 9.5 -15 9.5 C-15 19.4 -15 29.3 -15 39.5 C-15.33 39.5 -15.66 39.5 -16 39.5 C-16.19930257 35.23185878 -16.34361681 30.96624862 -16.43945312 26.69482422 C-16.47943584 25.24545067 -16.53384713 23.79639472 -16.60351562 22.34814453 C-17.23884115 8.79141901 -17.23884115 8.79141901 -12.46875 3.53125 C-8.21265654 0.0946528 -5.39336506 -0.38524036 0 0 Z " fill="#717171" transform="translate(218,71.5)"/>
<path d="M0 0 C6.93 0.495 6.93 0.495 14 1 C14 1.33 14 1.66 14 2 C13.18917969 1.94457031 12.37835938 1.88914062 11.54296875 1.83203125 C5.00050376 1.79394938 0.85638704 2.44345173 -3.84838867 7.00463867 C-5.98345221 9.27641464 -8.01978612 11.59120275 -10 14 C-12 11 -12 11 -12 9 C-9.69 8.34 -7.38 7.68 -5 7 C-4.67 5.68 -4.34 4.36 -4 3 C-2.68 2.67 -1.36 2.34 0 2 C0 1.34 0 0.68 0 0 Z " fill="#EDCFCA" transform="translate(82,72)"/>
<path d="M0 0 C0.66 0 1.32 0 2 0 C2.125 6.75 2.125 6.75 1 9 C-2.96 9 -6.92 9 -11 9 C-11 8.34 -11 7.68 -11 7 C-7.7 7 -4.4 7 -1 7 C-1.33 6.01 -1.66 5.02 -2 4 C-4.31 3.67 -6.62 3.34 -9 3 C-9 2.67 -9 2.34 -9 2 C-6.94921875 1.77213542 -4.8984375 1.54427083 -2.84765625 1.31640625 C-0.98859771 1.18113386 -0.98859771 1.18113386 0 0 Z " fill="#333331" transform="translate(223,107)"/>
<path d="M0 0 C0.33 0.66 0.66 1.32 1 2 C3.02463255 2.65213292 3.02463255 2.65213292 5 3 C3.6905332 4.33631236 2.37734515 5.66897925 1.0625 7 C-0.03384766 8.11375 -0.03384766 8.11375 -1.15234375 9.25 C-3 11 -3 11 -4 11 C-4.103125 10.21625 -4.20625 9.4325 -4.3125 8.625 C-4.77595022 5.66954819 -4.77595022 5.66954819 -8 4 C-7.21625 4.061875 -6.4325 4.12375 -5.625 4.1875 C-4.75875 4.125625 -3.8925 4.06375 -3 4 C-2.34 3.01 -1.68 2.02 -1 1 C-0.67 0.67 -0.34 0.34 0 0 Z " fill="#F5E7E6" transform="translate(50,100)"/>
<path d="M0 0 C-3.3810038 4.13621084 -6.66590534 7.81316569 -11 11 C-11.33 10.01 -11.66 9.02 -12 8 C-10.7421875 5.95703125 -10.7421875 5.95703125 -8.875 3.8125 C-8.27429687 3.09707031 -7.67359375 2.38164063 -7.0546875 1.64453125 C-4.52518635 -0.38003146 -3.15959664 -0.33345224 0 0 Z " fill="#F4E6E2" transform="translate(71,86)"/>
<path d="M0 0 C0 1.66666667 0 3.33333333 0 5 C0.66 5 1.32 5 2 5 C2.33 5.99 2.66 6.98 3 8 C1.35 9.32 -0.3 10.64 -2 12 C-2.33 10.35 -2.66 8.7 -3 7 C-4.32 7.33 -5.64 7.66 -7 8 C-6.02133662 6.85373678 -5.04205413 5.70800212 -4.0625 4.5625 C-3.51722656 3.92441406 -2.97195312 3.28632812 -2.41015625 2.62890625 C-1.63204305 1.73008851 -0.84063472 0.84063472 0 0 Z " fill="#D1060D" transform="translate(69,92)"/>
<path d="M0 0 C0.33 0.66 0.66 1.32 1 2 C3.01669827 3.13350534 3.01669827 3.13350534 5 4 C5 4.99 5 5.98 5 7 C5.99 7.33 6.98 7.66 8 8 C7.67 8.66 7.34 9.32 7 10 C5.35 10 3.7 10 2 10 C-1.07692308 4.58461538 -1.07692308 4.58461538 -0.6875 1.625 C-0.460625 1.08875 -0.23375 0.5525 0 0 Z " fill="#1F1F1D" transform="translate(112,105)"/>
<path d="M0 0 C1.7578125 2.29492188 1.7578125 2.29492188 3.515625 4.58984375 C2.525625 4.58984375 1.535625 4.58984375 0.515625 4.58984375 C0.00515625 3.9453125 -0.5053125 3.30078125 -1.03125 2.63671875 C-4.8647385 -0.56192452 -8.88739563 -0.0854829 -13.734375 -0.16015625 C-14.67023438 -0.18980469 -15.60609375 -0.21945313 -16.5703125 -0.25 C-18.87508592 -0.32055429 -21.17885668 -0.37331877 -23.484375 -0.41015625 C-23.484375 -0.74015625 -23.484375 -1.07015625 -23.484375 -1.41015625 C-20.56803378 -1.60517907 -17.65157955 -1.79144953 -14.734375 -1.97265625 C-13.496875 -2.05676758 -13.496875 -2.05676758 -12.234375 -2.14257812 C-11.43515625 -2.19091797 -10.6359375 -2.23925781 -9.8125 -2.2890625 C-9.0793457 -2.33619385 -8.34619141 -2.3833252 -7.59082031 -2.43188477 C-4.53137839 -2.40032585 -2.25419682 -2.14148698 0 0 Z " fill="#494949" transform="translate(168.484375,75.41015625)"/>
<path d="M0 0 C0.66 0 1.32 0 2 0 C2.33 0.99 2.66 1.98 3 3 C3.99 3.66 4.98 4.32 6 5 C6 5.99 6 6.98 6 8 C6.86625 7.814375 7.7325 7.62875 8.625 7.4375 C12.05152628 6.99332067 14.64212371 7.28045508 18 8 C18 8.33 18 8.66 18 9 C6.53502699 9.7553789 6.53502699 9.7553789 3.0234375 8.02734375 C1.6875 6.75 1.6875 6.75 0 4 C0 2.68 0 1.36 0 0 Z " fill="#10100E" transform="translate(108,107)"/>
<path d="M0 0 C13.39372197 -1.0735426 13.39372197 -1.0735426 17.33203125 1.55859375 C18.78137699 3.31120891 19.96350475 4.97857644 21 7 C20.01 7 19.02 7 18 7 C17.38125 6.195625 16.7625 5.39125 16.125 4.5625 C13.28149945 1.42667696 10.27379013 1.48032861 6.1875 1.1875 C4.12579092 1.10283492 2.06317919 1.03322836 0 1 C0 0.67 0 0.34 0 0 Z " fill="#1F1F1E" transform="translate(211,73)"/>
<path d="M0 0 C2 3 2 3 2 5 C3.32 5.66 4.64 6.32 6 7 C2.04 7 -1.92 7 -6 7 C-4.02 4.69 -2.04 2.38 0 0 Z " fill="#CD242D" transform="translate(47,114)"/>
<path d="M0 0 C0.33 0.66 0.66 1.32 1 2 C1.66 2.33 2.32 2.66 3 3 C3.625 5.0625 3.625 5.0625 4 7 C3.01 7.66 2.02 8.32 1 9 C0.67 7.35 0.34 5.7 0 4 C-1.32 4.33 -2.64 4.66 -4 5 C-2.68 3.35 -1.36 1.7 0 0 Z " fill="#D4050E" transform="translate(74,87)"/>
<path d="M0 0 C0.6875 1.8125 0.6875 1.8125 1 4 C-0.125 5.75 -0.125 5.75 -2 7 C-4.6875 7.1875 -4.6875 7.1875 -7 7 C-6.34 6.67 -5.68 6.34 -5 6 C-5 4.68 -5 3.36 -5 2 C-4.360625 1.855625 -3.72125 1.71125 -3.0625 1.5625 C-1.02454854 1.18992819 -1.02454854 1.18992819 0 0 Z " fill="#DCDCDA" transform="translate(124,104)"/>
<path d="M0 0 C1.32 1.65 2.64 3.3 4 5 C2.02 6.32 0.04 7.64 -2 9 C-2.33 7.02 -2.66 5.04 -3 3 C-2.34 3 -1.68 3 -1 3 C-0.67 2.01 -0.34 1.02 0 0 Z " fill="#D4080E" transform="translate(83,81)"/>
<path d="M0 0 C0.99 0.33 1.98 0.66 3 1 C0.36 3.64 -2.28 6.28 -5 9 C-5.66 8.34 -6.32 7.68 -7 7 C-4.69 4.69 -2.38 2.38 0 0 Z " fill="#343433" transform="translate(170,111)"/>
<path d="M0 0 C0.99 0.33 1.98 0.66 3 1 C0.14473162 3.77461108 -1.28655817 4.96319878 -5.33203125 5.171875 C-6.48058594 5.03265625 -7.62914063 4.8934375 -8.8125 4.75 C-9.97394531 4.62109375 -11.13539062 4.4921875 -12.33203125 4.359375 C-13.21246094 4.24078125 -14.09289062 4.1221875 -15 4 C-15 3.67 -15 3.34 -15 3 C-13.62714844 2.92652344 -13.62714844 2.92652344 -12.2265625 2.8515625 C-11.03804688 2.77679688 -9.84953125 2.70203125 -8.625 2.625 C-7.44164063 2.55539063 -6.25828125 2.48578125 -5.0390625 2.4140625 C-1.89437681 2.29782654 -1.89437681 2.29782654 0 0 Z " fill="#393938" transform="translate(129,115)"/>
<path d="M0 0 C1.67542976 0.28604898 3.34385343 0.61781233 5 1 C4.67 1.66 4.34 2.32 4 3 C4.39938767 5.09821215 4.39938767 5.09821215 5 7 C3.35 7 1.7 7 0 7 C-0.38133299 5.0085944 -0.71325582 3.00720923 -1 1 C-0.67 0.67 -0.34 0.34 0 0 Z " fill="#D7040D" transform="translate(55,106)"/>
<path d="M0 0 C0.66 0 1.32 0 2 0 C2 1.98 2 3.96 2 6 C1.01 6 0.02 6 -1 6 C-1.33 5.34 -1.66 4.68 -2 4 C-4.32156597 3.59270772 -6.6568787 3.25561323 -9 3 C-9 2.67 -9 2.34 -9 2 C-6.94921875 1.77213542 -4.8984375 1.54427083 -2.84765625 1.31640625 C-0.98859771 1.18113386 -0.98859771 1.18113386 0 0 Z " fill="#2D2D2C" transform="translate(223,107)"/>
<path d="M0 0 C0.99 0.33 1.98 0.66 3 1 C3 2.65 3 4.3 3 6 C0.69 5.67 -1.62 5.34 -4 5 C-2.68 3.35 -1.36 1.7 0 0 Z " fill="#1F1F1D" transform="translate(124,110)"/>
<path d="M0 0 C0.66 0.33 1.32 0.66 2 1 C1.6875 2.875 1.6875 2.875 1 5 C0.01 5.66 -0.98 6.32 -2 7 C-2.6875 5.1875 -2.6875 5.1875 -3 3 C-1.5625 1.25 -1.5625 1.25 0 0 Z " fill="#151513" transform="translate(227,106)"/>
<path d="M0 0 C0.66 0 1.32 0 2 0 C2 0.99 2 1.98 2 3 C2.66 3 3.32 3 4 3 C4 3.99 4 4.98 4 6 C2.35 6 0.7 6 -1 6 C-0.34 5.67 0.32 5.34 1 5 C0.34 4.67 -0.32 4.34 -1 4 C-0.67 2.68 -0.34 1.36 0 0 Z " fill="#DC0409" transform="translate(48,114)"/>
<path d="M0 0 C0.33 0.66 0.66 1.32 1 2 C-0.32 3.32 -1.64 4.64 -3 6 C-3 5.34 -3 4.68 -3 4 C-5.64 4 -8.28 4 -11 4 C-11 3.67 -11 3.34 -11 3 C-10.37351563 2.95101562 -9.74703125 2.90203125 -9.1015625 2.8515625 C-8.28429687 2.77679688 -7.46703125 2.70203125 -6.625 2.625 C-5.81289062 2.55539063 -5.00078125 2.48578125 -4.1640625 2.4140625 C-1.79665809 2.17107412 -1.79665809 2.17107412 0 0 Z " fill="#0B0B0A" transform="translate(163,107)"/>
<path d="M0 0 C0.33 0.99 0.66 1.98 1 3 C0.34 3.66 -0.32 4.32 -1 5 C-2.32 5 -3.64 5 -5 5 C-4.1875 3.0625 -4.1875 3.0625 -3 1 C-2.01 0.67 -1.02 0.34 0 0 Z " fill="#F9ECEA" transform="translate(74,99)"/>
<path d="M0 0 C0.33 0.66 0.66 1.32 1 2 C3.02463255 2.65213292 3.02463255 2.65213292 5 3 C0.375 5.125 0.375 5.125 -3 4 C-1 1 -1 1 0 0 Z " fill="#F6F0EF" transform="translate(50,100)"/>
<path d="M0 0 C0.33 0.99 0.66 1.98 1 3 C-0.98 3.33 -2.96 3.66 -5 4 C-5.66 3.01 -6.32 2.02 -7 1 C-4.50935112 0.31292445 -2.62113708 0 0 0 Z " fill="#232322" transform="translate(216,111)"/>
</svg>
