<?xml version="1.0" encoding="UTF-8"?>
<svg version="1.1" xmlns="http://www.w3.org/2000/svg" width="440" height="338">
<path d="M0 0 C145.2 0 290.4 0 440 0 C440 111.54 440 223.08 440 338 C294.8 338 149.6 338 0 338 C0 226.46 0 114.92 0 0 Z " fill="#FEFEFE" transform="translate(0,0)"/>
<path d="M0 0 C4.34790163 3.31220755 8.18813082 7.09458801 12 11 C12.59296875 11.57234375 13.1859375 12.1446875 13.796875 12.734375 C25.38297115 24.81879786 29.49376147 41.13472404 29.42675781 57.34960938 C28.88217441 77.14857303 20.89677543 94.14162962 6.60546875 107.8671875 C-9.09707209 120.72114147 -27.2527501 124.08369054 -47 123 C-64.09283762 121.00094496 -77.53199625 112.10242711 -88.34765625 99.19921875 C-94.93058557 90.49990842 -99.26420532 81.53650652 -102 71 C-102.17273438 70.39269043 -102.34546875 69.78538086 -102.5234375 69.15966797 C-106.33434712 51.88953144 -101.97043464 33.8116479 -93 19 C-90.25328523 15.37112866 -87.26751361 12.16282093 -84 9 C-83.26652344 8.28070313 -82.53304687 7.56140625 -81.77734375 6.8203125 C-59.80940437 -13.71409292 -25.32902777 -16.75556858 0 0 Z " fill="#EFAD3A" transform="translate(257,67)"/>
<path d="M0 0 C1.28210358 -0.00619858 2.56420715 -0.01239716 3.88516235 -0.01878357 C6.59354678 -0.02916319 9.30140505 -0.02466405 12.00976562 -0.01000977 C15.46211212 0.00715093 18.91278988 -0.01629238 22.36495018 -0.05149937 C25.68089506 -0.07888724 28.99644758 -0.06872903 32.3125 -0.0625 C34.15816055 -0.08238731 34.15816055 -0.08238731 36.04110718 -0.10267639 C43.21180947 -0.02528487 48.3206914 0.69356712 53.7890625 5.56640625 C58.89419369 11.5022302 58.37358702 17.94788534 58.25561523 25.52734375 C58.22662488 27.56202784 58.23503474 29.59410339 58.24804688 31.62890625 C58.15568548 45.95202739 58.15568548 45.95202739 53.32542419 51.13775635 C47.07201816 56.54156043 41.16738159 56.4412911 33.1640625 56.36328125 C31.86259277 56.36902161 30.56112305 56.37476196 29.22021484 56.38067627 C26.47644905 56.38947915 23.73386211 56.37680902 20.99023438 56.34863281 C17.49276895 56.31444369 13.99806621 56.33415074 10.5007019 56.3700676 C7.13827395 56.39710184 3.77656867 56.37811216 0.4140625 56.36328125 C-1.45499756 56.38149933 -1.45499756 56.38149933 -3.36181641 56.40008545 C-10.16851851 56.29050697 -14.51767 55.65684691 -19.74768066 51.13813782 C-25.41277483 45.05307666 -24.73866152 37.55376703 -24.71191406 29.66040039 C-24.71094095 27.63608718 -24.75265037 25.61556523 -24.796875 23.59179688 C-24.81003313 16.97654467 -24.72518589 11.71135853 -20.87304688 6.17749023 C-14.2994568 -0.19429603 -8.98168421 -0.03608618 0 0 Z " fill="#FEFEFC" transform="translate(203.2109375,110.43359375)"/>
<path d="M0 0 C1.05960937 0.3403125 2.11921875 0.680625 3.2109375 1.03125 C23.77692314 8.26109768 41.35853808 23.29788216 51 43 C51 43.99 51 44.98 51 46 C52.8253125 46.1546875 52.8253125 46.1546875 54.6875 46.3125 C59.85975148 46.97841598 62.77924507 48.60969577 66.25 52.5625 C70.03305913 57.83176094 69.22271425 63.38398848 69.24023438 69.63867188 C69.24989952 71.72827579 69.2809027 73.81687869 69.3125 75.90625 C69.31903453 77.24478585 69.32428323 78.58332871 69.328125 79.921875 C69.3374707 81.13456055 69.34681641 82.34724609 69.35644531 83.59667969 C68.89557023 87.99708967 67.49457666 91.36141465 64.5 94.64453125 C60.63005799 97.65784547 57.89702612 99.14354934 53 99.125 C51.9790625 99.12886719 51.9790625 99.12886719 50.9375 99.1328125 C49 99 49 99 46 98 C46.15984375 96.86820312 46.3196875 95.73640625 46.484375 94.5703125 C49.11984363 73.30899645 45.51729641 53.34644315 32.5 36 C31.3572061 34.64614957 30.19071897 33.31189833 29 32 C28.39671875 31.31679687 27.7934375 30.63359375 27.171875 29.9296875 C19.03355857 21.22896709 9.06990687 16.08805689 -2 12 C-3.41345703 11.46826172 -3.41345703 11.46826172 -4.85546875 10.92578125 C-23.02682161 5.57595438 -43.16765741 8.68870564 -59.56713867 17.58178711 C-66.23649121 21.46173695 -71.64827508 26.49062737 -77 32 C-77.61488281 32.6290625 -78.22976562 33.258125 -78.86328125 33.90625 C-92.41628079 48.75501435 -95.80243085 67.48946712 -95 87 C-94.75164047 90.34653943 -94.42942475 93.67195821 -94 97 C-97.9606628 99.20036822 -101.52775217 99.69932833 -106 99 C-110.95520521 96.42710499 -114.49116963 93.01766074 -117 88 C-117.25869471 83.64821972 -117.27106692 79.29257549 -117.29516602 74.93408203 C-117.31232692 72.77180818 -117.35620542 70.61108493 -117.40039062 68.44921875 C-117.41052276 67.06511538 -117.41903723 65.68099903 -117.42578125 64.296875 C-117.44036377 63.04229492 -117.45494629 61.78771484 -117.4699707 60.49511719 C-116.7792844 55.35856387 -114.34700965 52.34700965 -110.75 48.75 C-108 47 -108 47 -104.0625 46.4375 C-101.11178347 45.80992223 -100.23100753 45.32883214 -98.46875 42.8203125 C-97.49900131 40.91852757 -96.55237993 39.00483256 -95.625 37.08203125 C-86.02416406 18.87275348 -67.24432603 6.27825257 -48.22265625 -0.39453125 C-32.97185028 -4.848585 -15.10041675 -5.04703956 0 0 Z " fill="#5A595B" transform="translate(244,43)"/>
<path d="M0 0 C4.2526402 1.79555919 6.09602923 3.83372689 8 8 C8.46385797 11.50599008 8.46422306 14.96769701 8.4375 18.5 C8.4674707 19.90572266 8.4674707 19.90572266 8.49804688 21.33984375 C8.49492981 25.73490663 8.44926655 28.27989252 6.08203125 32.07421875 C2.35642637 35.52022852 -0.61052828 36.60380884 -5.828125 36.53515625 C-10.11875945 35.47793157 -13.01852561 32.10834564 -16 29 C-15.505 27.515 -15.505 27.515 -15 26 C-12.74482775 27.04704426 -11.08485927 27.91514073 -9.3125 29.6875 C-6.08019079 31.52205387 -3.63620734 31.0132719 -0.0234375 30.6171875 C2.37920643 30.11804356 2.37920643 30.11804356 4 27 C4.38499891 25.34450469 4.72793135 23.6777567 5 22 C4.34 22.495 3.68 22.99 3 23.5 C-0.83232982 25.41616491 -3.79108279 25.62322709 -8 25 C-12.16960522 23.23950002 -14.27128428 21.18531174 -16 17 C-16.7669534 12.9198079 -16.92601427 9.52353418 -14.72265625 5.8984375 C-10.28867373 0.62969544 -7.0079431 -0.74122475 0 0 Z " fill="#616161" transform="translate(312,222)"/>
<path d="M0 0 C0.66 0 1.32 0 2 0 C2.0872253 4.39570794 2.14046869 8.79119271 2.1875 13.1875 C2.21263672 14.43337891 2.23777344 15.67925781 2.26367188 16.96289062 C2.27333984 18.16494141 2.28300781 19.36699219 2.29296875 20.60546875 C2.3086792 21.71043701 2.32438965 22.81540527 2.34057617 23.95385742 C1.84542836 28.38250209 0.21531 30.99302886 -3.1875 33.8125 C-6.91534841 35.38648044 -10.01030457 35.59076626 -14 35 C-18.16960522 33.23950002 -20.27128428 31.18531174 -22 27 C-22.7647895 22.93131988 -22.9078189 19.53586971 -20.7578125 15.8984375 C-18.28655834 12.91080187 -16.73428459 11.24476153 -13 10 C-7.8440797 9.61807998 -5.28473818 10.20240462 -1 13 C-1.01160156 12.14535156 -1.02320313 11.29070312 -1.03515625 10.41015625 C-1.04417969 9.30542969 -1.05320313 8.20070312 -1.0625 7.0625 C-1.07410156 5.96035156 -1.08570313 4.85820312 -1.09765625 3.72265625 C-1 1 -1 1 0 0 Z " fill="#5F5F5F" transform="translate(184,212)"/>
<path d="M0 0 C2.6875 1.25 2.6875 1.25 5 3 C5.763125 3.515625 6.52625 4.03125 7.3125 4.5625 C10.01021786 8.45920357 9.61048742 12.41389936 9 17 C7.69078973 20.23857278 6.47966387 21.60256422 3.8125 23.8125 C0.08465159 25.38648044 -3.01030457 25.59076626 -7 25 C-11.16960522 23.23950002 -13.27128428 21.18531174 -15 17 C-15.7669534 12.9198079 -15.92601427 9.52353418 -13.72265625 5.8984375 C-9.41358836 0.778127 -6.87482911 -0.46609011 0 0 Z " fill="#5E5E5E" transform="translate(340,222)"/>
<path d="M0 0 C4.05826371 2.10428489 6.30773374 3.77319797 8 8 C8.5822518 12.22699682 8.44569111 15.92095837 6.8125 19.875 C3.55554811 23.69349532 1.11390034 24.83830479 -3.875 25.5625 C-8.25412802 25.42123781 -10.55166064 23.43191913 -13.65234375 20.5078125 C-16.43993548 17.38894176 -16.44534185 14.43053534 -16.42578125 10.39453125 C-15.69260603 6.27126142 -13.08526198 3.68561665 -10 1 C-6.78501861 -0.6074907 -3.48701742 -0.47314549 0 0 Z " fill="#5F5F5F" transform="translate(217,222)"/>
<path d="M0 0 C4.16960522 1.76049998 6.27128428 3.81468826 8 8 C8.7669534 12.0801921 8.92601427 15.47646582 6.72265625 19.1015625 C4.66222277 21.54990155 2.87921355 23.56039322 0 25 C-5.25279338 25.34444547 -8.82634624 25.57741751 -13 22 C-15.57054568 18.18850123 -16.64785885 14.67347645 -16.49609375 10.03125 C-15.56122422 6.20343775 -12.87712858 3.57152684 -10 1 C-6.80401935 -0.59799033 -3.47677244 -0.36773555 0 0 Z " fill="#5F5F60" transform="translate(284,222)"/>
<path d="M0 0 C3 1 3 1 4.45800781 3.91162109 C4.96866932 5.19406775 5.4661888 6.48179601 5.953125 7.7734375 C6.21760437 8.45298492 6.48208374 9.13253235 6.75457764 9.83267212 C7.31130909 11.27141425 7.86237461 12.7123597 8.40820312 14.15527344 C9.24622461 16.36504471 10.10599753 18.56540924 10.96875 20.765625 C11.50653341 22.16355346 12.04303513 23.56197581 12.578125 24.9609375 C12.96547821 25.95013687 12.96547821 25.95013687 13.36065674 26.95932007 C15.11519644 31.65441069 15.11519644 31.65441069 14 35 C11 34 11 34 9.83203125 31.71484375 C8.88802083 29.14322917 7.94401042 26.57161458 7 24 C2.71 23.67 -1.58 23.34 -6 23 C-6.474375 24.60875 -6.94875 26.2175 -7.4375 27.875 C-8.875 32.75 -8.875 32.75 -10 35 C-10.99 35 -11.98 35 -13 35 C-12.44832342 30.26064749 -11.50049562 26.14765863 -9.78515625 21.69921875 C-9.34623047 20.55775391 -8.90730469 19.41628906 -8.45507812 18.24023438 C-7.99552734 17.06783203 -7.53597656 15.89542969 -7.0625 14.6875 C-6.60681641 13.49576172 -6.15113281 12.30402344 -5.68164062 11.07617188 C-2.26376971 2.26376971 -2.26376971 2.26376971 0 0 Z " fill="#575757" transform="translate(116,212)"/>
<path d="M0 0 C2.5625 2.125 2.5625 2.125 4 5 C4 8.92016134 3.55226285 11.17160572 1.375 14.4375 C-1.97614728 16.64220216 -4.06249016 16.55263296 -8 16 C-11.79075032 13.93980961 -12.78313252 12.70163008 -14.0625 8.5625 C-13.98713481 4.26668421 -13.03450339 2.94780329 -10 0 C-6.7178954 -1.6410523 -3.41283846 -0.9693269 0 0 Z " fill="#F8F8F8" transform="translate(313,227)"/>
<path d="M0 0 C2.5625 2.125 2.5625 2.125 4 5 C4 8.92016134 3.55226285 11.17160572 1.375 14.4375 C-1.97614728 16.64220216 -4.06249016 16.55263296 -8 16 C-11.79075032 13.93980961 -12.78313252 12.70163008 -14.0625 8.5625 C-13.98713481 4.26668421 -13.03450339 2.94780329 -10 0 C-6.7178954 -1.6410523 -3.41283846 -0.9693269 0 0 Z " fill="#F8F8F8" transform="translate(218,227)"/>
<path d="M0 0 C3.74093467 2.07829704 4.79149259 3.32541719 6.0625 7.4375 C6 11 6 11 4.5625 13.875 C1.6090878 16.32417109 -0.25653123 16.95900752 -4.03125 17.19140625 C-7.43519118 16.86046752 -8.86359433 15.58958263 -11 13 C-12.0625 9.5625 -12.0625 9.5625 -12 6 C-8.68791982 0.74635558 -6.16206486 -0.60412401 0 0 Z " fill="#F9F9F9" transform="translate(340,226)"/>
<path d="M0 0 C2.5625 2.125 2.5625 2.125 4 5 C3.94059005 8.44577711 3.64420373 10.86316989 1.9375 13.875 C-1.21709176 15.70669844 -4.41276468 16.2167725 -8 16 C-10.9375 14.5 -10.9375 14.5 -13 12 C-14.0625 8.5625 -14.0625 8.5625 -14 5 C-10.23785565 -0.96753932 -6.73116103 -1.91180905 0 0 Z " fill="#F9F9F9" transform="translate(285,227)"/>
<path d="M0 0 C2.5625 2.125 2.5625 2.125 4 5 C3.94059005 8.44577711 3.64420373 10.86316989 1.9375 13.875 C-1.21709176 15.70669844 -4.41276468 16.2167725 -8 16 C-10.9375 14.5 -10.9375 14.5 -13 12 C-14.0625 8.5625 -14.0625 8.5625 -14 5 C-10.23785565 -0.96753932 -6.73116103 -1.91180905 0 0 Z " fill="#F9F9F9" transform="translate(179,227)"/>
<path d="M0 0 C0.99 0 1.98 0 3 0 C3.02578125 1.10859375 3.0515625 2.2171875 3.078125 3.359375 C3.13441656 4.82295547 3.19176367 6.28649562 3.25 7.75 C3.26417969 8.47960937 3.27835938 9.20921875 3.29296875 9.9609375 C3.45326367 13.48742571 3.71998766 15.62586587 5.859375 18.484375 C8.79595434 20.56355891 10.47800658 20.5869989 14 20 C17.27636433 17.63240825 17.9386579 16.3696255 18.609375 12.328125 C18.67532564 10.96954185 18.72172254 9.60988898 18.75 8.25 C18.79447266 7.20392578 18.79447266 7.20392578 18.83984375 6.13671875 C18.91018458 4.42509187 18.95739946 2.71254185 19 1 C20.32 1 21.64 1 23 1 C23 8.59 23 16.18 23 24 C21 24 19 24 17 24 C16.01 24.33 15.02 24.66 14 25 C9.90300628 25.37935127 7.72206983 25.44928789 4.1875 23.25 C0.21644358 19.16548483 -0.22313307 16.14563194 -0.17578125 10.60546875 C-0.15902344 9.82816406 -0.14226562 9.05085937 -0.125 8.25 C-0.11597656 7.45722656 -0.10695312 6.66445312 -0.09765625 5.84765625 C-0.07417012 3.89830719 -0.03830137 1.94911425 0 0 Z " fill="#5D5D5E" transform="translate(135,222)"/>
<path d="M0 0 C0.99 0 1.98 0 3 0 C3 10.23 3 20.46 3 31 C9.27 31 15.54 31 22 31 C22 32.32 22 33.64 22 35 C14.74 35 7.48 35 0 35 C0 23.45 0 11.9 0 0 Z " fill="#585859" transform="translate(242,212)"/>
<path d="M0 0 C0.33 0.99 0.66 1.98 1 3 C0.01 4.485 0.01 4.485 -1 6 C-1.66 6 -2.32 6 -3 6 C-3 6.99 -3 7.98 -3 9 C-3.99 9 -4.98 9 -6 9 C-6 9.66 -6 10.32 -6 11 C-7.98 11.99 -7.98 11.99 -10 13 C-9.67 13.33 -9.34 13.66 -9 14 C-8.34 13.34 -7.68 12.68 -7 12 C-6.65440842 14.90296927 -6.48125684 17.12537491 -8.0078125 19.69921875 C-10.19479231 22.40347821 -11.66669298 23.88889766 -15 25 C-15.66 25.66 -16.32 26.32 -17 27 C-18.91731897 22.44636746 -19.37226418 19.80292462 -18 15 C-16.3125 13.125 -16.3125 13.125 -14 11 C-12.43269188 9.14809118 -10.89526934 7.27499535 -9.3671875 5.390625 C-8.91601562 4.93171875 -8.46484375 4.4728125 -8 4 C-7.34 4 -6.68 4 -6 4 C-5.67 3.01 -5.34 2.02 -5 1 C-3.35 0.67 -1.7 0.34 0 0 Z " fill="#585859" transform="translate(172,59)"/>
<path d="M0 0 C0.99 0.33 1.98 0.66 3 1 C4.03865096 3.36695387 4.89577096 5.61555495 5.6875 8.0625 C5.91244141 8.72572266 6.13738281 9.38894531 6.36914062 10.07226562 C6.92334719 11.71130207 7.46306085 13.35522593 8 15 C7.01 15.495 7.01 15.495 6 16 C6 16.99 6 17.98 6 19 C2.7 19 -0.6 19 -4 19 C-4.33 18.01 -4.66 17.02 -5 16 C-5.66 17.32 -6.32 18.64 -7 20 C-8 18 -8 18 -6.85546875 14.375 C-6.30746184 12.91364824 -5.75109074 11.45541266 -5.1875 10 C-4.91357422 9.26265625 -4.63964844 8.5253125 -4.35742188 7.765625 C-2.26431333 2.26431333 -2.26431333 2.26431333 0 0 Z " fill="#626264" transform="translate(116,212)"/>
<path d="M0 0 C0.33 0.66 0.66 1.32 1 2 C-3.625 7.75 -3.625 7.75 -7 10 C-6.67 10.66 -6.34 11.32 -6 12 C-6.99 12.495 -6.99 12.495 -8 13 C-8.99 14.485 -8.99 14.485 -10 16 C-10.66 16 -11.32 16 -12 16 C-12.33 17.32 -12.66 18.64 -13 20 C-12.34 20.33 -11.68 20.66 -11 21 C-11.33 21.66 -11.66 22.32 -12 23 C-11.34 23.66 -10.68 24.32 -10 25 C-9.01 24.34 -8.02 23.68 -7 23 C-6.67 23.66 -6.34 24.32 -6 25 C-6.77734375 26.7265625 -6.77734375 26.7265625 -7.9375 28.625 C-8.618125 29.73875 -9.29875 30.8525 -10 32 C-13.875 30.125 -13.875 30.125 -15 29 C-15.4125 29.66 -15.825 30.32 -16.25 31 C-16.8275 31.66 -17.405 32.32 -18 33 C-19.32 33 -20.64 33 -22 33 C-22 32.34 -22 31.68 -22 31 C-23.65 31 -25.3 31 -27 31 C-27 30.67 -27 30.34 -27 30 C-26.23171875 29.93554688 -25.4634375 29.87109375 -24.671875 29.8046875 C-21.85434048 29.25652655 -21.85434048 29.25652655 -20.515625 26.8828125 C-20.09796875 25.97273438 -19.6803125 25.06265625 -19.25 24.125 C-14.52679561 14.77572652 -7.58665046 7.14755172 0 0 Z " fill="#616162" transform="translate(166,59)"/>
<path d="M0 0 C2.55669632 1.87654954 4.72553854 3.77969239 7 6 C5.515 6.495 5.515 6.495 4 7 C4 6.34 4 5.68 4 5 C3.38511719 4.79503906 2.77023437 4.59007813 2.13671875 4.37890625 C-1.2421875 3.25260417 -4.62109375 2.12630208 -8 1 C-8 0.34 -8 -0.32 -8 -1 C-8.598125 -1.103125 -9.19625 -1.20625 -9.8125 -1.3125 C-12 -2 -12 -2 -13.34375 -3.5 C-15.4719888 -5.42746155 -16.85666041 -5.4823667 -19.6875 -5.6875 C-20.49574219 -5.75324219 -21.30398437 -5.81898437 -22.13671875 -5.88671875 C-22.75160156 -5.92410156 -23.36648437 -5.96148437 -24 -6 C-24 -6.66 -24 -7.32 -24 -8 C-28.31278385 -7.86188078 -32.62513953 -7.71321891 -36.9375 -7.5625 C-38.16919922 -7.52318359 -39.40089844 -7.48386719 -40.66992188 -7.44335938 C-42.4246582 -7.38051758 -42.4246582 -7.38051758 -44.21484375 -7.31640625 C-45.84087524 -7.26141968 -45.84087524 -7.26141968 -47.49975586 -7.20532227 C-49.939263 -7.27635735 -49.939263 -7.27635735 -51 -6 C-52.51928038 -5.92820036 -54.04167482 -5.91607993 -55.5625 -5.9375 C-56.38878906 -5.94652344 -57.21507812 -5.95554687 -58.06640625 -5.96484375 C-58.70449219 -5.97644531 -59.34257812 -5.98804688 -60 -6 C-43.28822835 -17.1411811 -15.61944119 -9.2545189 0 0 Z " fill="#E5B256" transform="translate(257,67)"/>
<path d="M0 0 C11.82858402 9.17318761 19.81312622 23.14915245 22 38 C22.21028286 41.52763616 22.19237714 45.03038312 22.125 48.5625 C22.11597656 49.47580078 22.10695313 50.38910156 22.09765625 51.33007812 C22.07437253 53.55367319 22.0416771 55.77668677 22 58 C19.7935069 54.69026035 19.68456934 53.33198295 19.47265625 49.44921875 C19.40240234 48.35802734 19.33214844 47.26683594 19.25976562 46.14257812 C19.12893467 43.85109341 19.00129656 41.55942403 18.87695312 39.26757812 C18.49821702 33.47052736 18.11306266 29.06402836 15 24 C15 23.34 15 22.68 15 22 C14.34 22 13.68 22 13 22 C12.67 21.01 12.34 20.02 12 19 C11.01 18.67 10.02 18.34 9 18 C8.938125 16.906875 8.87625 15.81375 8.8125 14.6875 C8.40852828 10.8903068 8.40852828 10.8903068 5.625 9.3125 C4.75875 8.879375 3.8925 8.44625 3 8 C0.17962886 4.98512051 0 4.33277666 0 0 Z " fill="#E4B159" transform="translate(264,74)"/>
<path d="M0 0 C0.66 0.33 1.32 0.66 2 1 C0.68 3.64 -0.64 6.28 -2 9 C-2.66 8.34 -3.32 7.68 -4 7 C-4.33 7.66 -4.66 8.32 -5 9 C-5.78375 9.309375 -6.5675 9.61875 -7.375 9.9375 C-10.03441325 11.01392917 -11.35865856 11.66756743 -13 14 C-13.25069913 16.62570704 -13.25069913 16.62570704 -13 19 C-14.65 18.67 -16.3 18.34 -18 18 C-18.12117187 18.61488281 -18.24234375 19.22976562 -18.3671875 19.86328125 C-18.61855469 21.07564453 -18.61855469 21.07564453 -18.875 22.3125 C-19.03742188 23.11300781 -19.19984375 23.91351563 -19.3671875 24.73828125 C-20 27 -20 27 -22 30 C-22.66 30 -23.32 30 -24 30 C-24.09796875 30.60328125 -24.1959375 31.2065625 -24.296875 31.828125 C-25.20946904 36.70578282 -25.87595723 39.83823388 -30 43 C-27.26952663 25.40361603 -16.37674329 12.95925956 -3 2 C-2.01 1.34 -1.02 0.68 0 0 Z " fill="#E5B25B" transform="translate(185,66)"/>
<path d="M0 0 C1.11117691 -0.00630432 2.22235382 -0.01260864 3.36720276 -0.019104 C4.56207809 -0.01505554 5.75695343 -0.01100708 6.98803711 -0.00683594 C8.21824081 -0.00874939 9.44844452 -0.01066284 10.71592712 -0.01263428 C13.3158285 -0.01399505 15.91573669 -0.01030618 18.515625 -0.00195312 C21.18421853 0.00521395 23.85200421 0.00716802 26.52050781 -0.00195312 C30.36393407 -0.01428168 34.20710018 -0.01281865 38.05053711 -0.00683594 C39.84588646 -0.01290863 39.84588646 -0.01290863 41.67750549 -0.019104 C42.78553024 -0.01279968 43.89355499 -0.00649536 45.03515625 0 C46.49931725 0.00238678 46.49931725 0.00238678 47.99305725 0.00482178 C50.45288086 0.25878906 50.45288086 0.25878906 53.45288086 2.25878906 C52.72482742 2.26687592 51.99677399 2.27496277 51.24665833 2.28329468 C44.37563259 2.36132999 37.50478031 2.44864762 30.63400745 2.54631615 C27.10191058 2.59619974 23.56984247 2.64253013 20.03759766 2.68066406 C15.97401325 2.7246916 11.91078614 2.78431013 7.84741211 2.84472656 C6.58266556 2.85627777 5.31791901 2.86782898 4.0148468 2.87973022 C2.83400009 2.89959991 1.65315338 2.9194696 0.43652344 2.93994141 C-0.60050217 2.95326508 -1.63752777 2.96658875 -2.70597839 2.98031616 C-5.65686546 3.26954579 -7.86616105 4.022898 -10.54711914 5.25878906 C-9.54711914 2.25878906 -9.54711914 2.25878906 -7.83131409 1.08746338 C-5.09403974 0.09441813 -2.91243852 0.0047438 0 0 Z " fill="#E6BE7A" transform="translate(195.547119140625,108.7412109375)"/>
<path d="M0 0 C3.40393195 3.40393195 2.30357857 8.20861113 2.32226562 12.8046875 C2.32009033 13.51463867 2.31791504 14.22458984 2.31567383 14.95605469 C2.31254209 17.09623486 2.33586363 19.23499374 2.36132812 21.375 C2.42509964 34.69524985 2.42509964 34.69524985 -1 41 C-2.485 41.495 -2.485 41.495 -4 42 C-5.66710346 43.49985609 -5.66710346 43.49985609 -7 45 C-8.32 44.01 -9.64 43.02 -11 42 C-10.195625 41.731875 -9.39125 41.46375 -8.5625 41.1875 C-7.2940625 40.5996875 -7.2940625 40.5996875 -6 40 C-5.67 39.01 -5.34 38.02 -5 37 C-4.34 37 -3.68 37 -3 37 C-1.44267126 32.12856641 -0.71869689 27.90939572 -0.5859375 22.75390625 C-0.56657135 22.09792953 -0.5472052 21.44195282 -0.5272522 20.76609802 C-0.46811091 18.69835872 -0.42133771 16.63056171 -0.375 14.5625 C-0.33675967 13.14906606 -0.29770455 11.73565391 -0.2578125 10.32226562 C-0.16246548 6.88171148 -0.07819713 3.44099161 0 0 Z " fill="#E7B45A" transform="translate(261,123)"/>
<path d="M0 0 C3 1 3 1 5.1875 3.625 C7.64719082 6.14119388 7.64719082 6.14119388 9.99609375 6.24609375 C13.598462 5.9354308 15.43513763 5.58251432 18 2.9375 C18.33 2.298125 18.66 1.65875 19 1 C20.32 1.33 21.64 1.66 23 2 C21.63183647 5.24038731 20.50407288 7.56793753 17.8125 9.875 C13.05206855 11.77917258 8.9179482 11.80980035 4.1875 9.8125 C1.68733737 7.74093668 0.33173471 5.95941047 -1 3 C-0.67 2.01 -0.34 1.02 0 0 Z " fill="#626262" transform="translate(163,236)"/>
<path d="M0 0 C0.66 0.33 1.32 0.66 2 1 C2.33 2.98 2.66 4.96 3 7 C-4.26 11.29 -11.52 15.58 -19 20 C-19.33 19.34 -19.66 18.68 -20 18 C-19.56171875 17.62230469 -19.1234375 17.24460937 -18.671875 16.85546875 C-12.33676893 11.35731775 -6.16746138 5.68434357 0 0 Z " fill="#FDF6E2" transform="translate(252,76)"/>
<path d="M0 0 C5.34044742 4.50971116 10.50835735 9.1863325 15.64453125 13.92578125 C17.81182131 16.01236044 17.81182131 16.01236044 20 17 C20 17.66 20 18.32 20 19 C15.02642312 17.2657267 10.68501047 14.56672043 6.1875 11.875 C5.39923828 11.40707031 4.61097656 10.93914062 3.79882812 10.45703125 C1.86397546 9.30784603 -0.06887228 8.15542997 -2 7 C-1.125 1.125 -1.125 1.125 0 0 Z " fill="#FEFAEA" transform="translate(187,76)"/>
<path d="M0 0 C0.66 0 1.32 0 2 0 C2 8.58 2 17.16 2 26 C1.01 25.67 0.02 25.34 -1 25 C-1.33569297 23.37548581 -1.6684796 21.75037083 -2 20.125 C-2.185625 19.22007812 -2.37125 18.31515625 -2.5625 17.3828125 C-3 15 -3 15 -3 13 C-2.34 13 -1.68 13 -1 13 C-1.01160156 12.14535156 -1.02320313 11.29070312 -1.03515625 10.41015625 C-1.04417969 9.30542969 -1.05320313 8.20070312 -1.0625 7.0625 C-1.07410156 5.96035156 -1.08570313 4.85820312 -1.09765625 3.72265625 C-1 1 -1 1 0 0 Z " fill="#595959" transform="translate(184,212)"/>
<path d="M0 0 C0.66 0 1.32 0 2 0 C2.01981934 0.87213135 2.03963867 1.7442627 2.06005859 2.64282227 C2.13857436 5.90643193 2.22527969 9.16961754 2.31738281 12.43286133 C2.35545293 13.84000398 2.39034245 15.24723669 2.421875 16.65454102 C2.4680078 18.68798823 2.52591568 20.72082707 2.5859375 22.75390625 C2.6173584 23.97408447 2.6487793 25.1942627 2.68115234 26.45141602 C3.02253621 30.25081456 3.84237918 33.37888083 5 37 C4.34 37 3.68 37 3 37 C2.67 35.35 2.34 33.7 2 32 C1.34 32 0.68 32 0 32 C0 21.44 0 10.88 0 0 Z " fill="#E6B663" transform="translate(177,123)"/>
<path d="M0 0 C0.99 0 1.98 0 3 0 C3 7.59 3 15.18 3 23 C2.01 23.33 1.02 23.66 0 24 C0 16.08 0 8.16 0 0 Z " fill="#58585B" transform="translate(192,223)"/>
<path d="M0 0 C0.66 0 1.32 0 2 0 C2.985267 2.22664317 3.96331444 4.45601317 4.9375 6.6875 C5.21529297 7.31333984 5.49308594 7.93917969 5.77929688 8.58398438 C7.2788865 12.03484724 8.43729857 15.27477406 9 19 C7.68 19 6.36 19 5 19 C4.72285156 18.30132812 4.44570312 17.60265625 4.16015625 16.8828125 C3.79792969 15.97273437 3.43570313 15.06265625 3.0625 14.125 C2.70285156 13.22007812 2.34320313 12.31515625 1.97265625 11.3828125 C1.05098738 9.03862333 1.05098738 9.03862333 0 7 C0.66 7 1.32 7 2 7 C1.67 5.68 1.34 4.36 1 3 C0.34 3 -0.32 3 -1 3 C-0.67 2.01 -0.34 1.02 0 0 Z " fill="#626262" transform="translate(122,227)"/>
<path d="M0 0 C0.66 0 1.32 0 2 0 C2 7.26 2 14.52 2 22 C1.34 22.33 0.68 22.66 0 23 C0 22.01 0 21.02 0 20 C-0.66 20 -1.32 20 -2 20 C-1.86177801 16.85378318 -1.71314916 13.70814434 -1.5625 10.5625 C-1.52318359 9.66466797 -1.48386719 8.76683594 -1.44335938 7.84179688 C-1.40146484 6.98779297 -1.35957031 6.13378906 -1.31640625 5.25390625 C-1.27974854 4.46314697 -1.24309082 3.6723877 -1.20532227 2.85766602 C-1 1 -1 1 0 0 Z " fill="#5C5C5E" transform="translate(155,222)"/>
<path d="M0 0 C3.86248624 3.34316036 4.54212374 7.20983513 6 12 C2.7 12 -0.6 12 -4 12 C-2.66666667 8 -1.33333333 4 0 0 Z " fill="#F4F4F4" transform="translate(116,219)"/>
<path d="M0 0 C5.08458392 3.97139099 9.90597076 8.24888458 13 14 C12.875 17 12.875 17 12 19 C11.01 18.67 10.02 18.34 9 18 C8.938125 16.906875 8.87625 15.81375 8.8125 14.6875 C8.40852828 10.8903068 8.40852828 10.8903068 5.625 9.3125 C4.75875 8.879375 3.8925 8.44625 3 8 C0.17962886 4.98512051 0 4.33277666 0 0 Z " fill="#E8AF4F" transform="translate(264,74)"/>
<path d="M0 0 C0.66 0 1.32 0 2 0 C2 6.27 2 12.54 2 19 C1.01 18.67 0.02 18.34 -1 18 C-0.95875 17.05125 -0.9175 16.1025 -0.875 15.125 C-0.65026182 11.89755144 -0.65026182 11.89755144 -3 10 C-2.75 8.25 -2.75 8.25 -2 6 C-1.649375 4.9275 -1.29875 3.855 -0.9375 2.75 C-0.4734375 1.38875 -0.4734375 1.38875 0 0 Z " fill="#565656" transform="translate(318,231)"/>
<path d="M0 0 C0.99 0.33 1.98 0.66 3 1 C2.67 1.99 2.34 2.98 2 4 C2.33 4.33 2.66 4.66 3 5 C2.71395102 6.67542976 2.38218767 8.34385343 2 10 C-0.3125 10.625 -0.3125 10.625 -3 11 C-3.99 10.34 -4.98 9.68 -6 9 C-5.70381606 5.44579276 -5.19662957 4.19662957 -2.625 1.625 C-1.325625 0.820625 -1.325625 0.820625 0 0 Z " fill="#565557" transform="translate(200,42)"/>
<path d="M0 0 C0.33 0 0.66 0 1 0 C1 7.59 1 15.18 1 23 C-2.27275026 23 -4.846632 22.70074844 -8 22 C-8 21.01 -8 20.02 -8 19 C-6.68 18.34 -5.36 17.68 -4 17 C-4 17.66 -4 18.32 -4 19 C-3.34 19 -2.68 19 -2 19 C-1.67 19.66 -1.34 20.32 -1 21 C-0.67 14.07 -0.34 7.14 0 0 Z " fill="#79797B" transform="translate(157,223)"/>
<path d="M0 0 C-3.72540662 2.48360441 -5.63062973 2.2315867 -10.07421875 2.1953125 C-10.7580513 2.1924826 -11.44188385 2.18965271 -12.1464386 2.18673706 C-14.32697165 2.17555684 -16.50709145 2.15045691 -18.6875 2.125 C-20.16731177 2.11496738 -21.64712999 2.10584202 -23.12695312 2.09765625 C-26.751436 2.07562481 -30.37567766 2.04111002 -34 2 C-34 1.34 -34 0.68 -34 0 C-33.30438965 0.00523682 -32.6087793 0.01047363 -31.89208984 0.01586914 C-28.71973587 0.03674337 -25.54739639 0.04969332 -22.375 0.0625 C-20.73337891 0.07506836 -20.73337891 0.07506836 -19.05859375 0.08789062 C-17.99511719 0.09111328 -16.93164062 0.09433594 -15.8359375 0.09765625 C-14.86188965 0.10289307 -13.8878418 0.10812988 -12.88427734 0.11352539 C-1.0209769 -0.35341508 -1.0209769 -0.35341508 0 0 Z " fill="#FEF7DE" transform="translate(239,189)"/>
<path d="M0 0 C0.66 0 1.32 0 2 0 C4 3 4 3 3.8125 5.5625 C3 8 3 8 0 10 C-2.1875 9.625 -2.1875 9.625 -4 9 C-2.94124926 5.59687262 -1.99097846 2.98646769 0 0 Z " fill="#575757" transform="translate(268,57)"/>
<path d="M0 0 C1.32 0 2.64 0 4 0 C3.67 0.99 3.34 1.98 3 3 C3.87483915 5.16715557 3.87483915 5.16715557 5 7 C4.01 7 3.02 7 2 7 C2 8.65 2 10.3 2 12 C-4.28571429 14.42857143 -4.28571429 14.42857143 -8 13 C-3.375 10 -3.375 10 0 10 C0.33 8.68 0.66 7.36 1 6 C-0.32 5.34 -1.64 4.68 -3 4 C-2.01 3.67 -1.02 3.34 0 3 C0 2.01 0 1.02 0 0 Z " fill="#636363" transform="translate(202,41)"/>
<path d="M0 0 C3.4088837 1.13629457 3.7566282 1.75912151 5.6875 4.625 C8.44369571 8.4576204 11.48829395 11.3701222 15.09765625 14.390625 C17.54867307 16.46417517 19.76626443 18.69646019 22 21 C12.58212806 17.79926416 5.4270819 9.0507705 0 1 C0 0.67 0 0.34 0 0 Z " fill="#E1B363" transform="translate(165,160)"/>
<path d="M0 0 C0.33 0.99 0.66 1.98 1 3 C1.66 3.33 2.32 3.66 3 4 C1.68 7.3 0.36 10.6 -1 14 C-1.99 14 -2.98 14 -4 14 C-3.46148032 8.72250715 -2.22656164 4.74354436 0 0 Z " fill="#656566" transform="translate(107,233)"/>
<path d="M0 0 C1.01320312 0.00902344 2.02640625 0.01804688 3.0703125 0.02734375 C5.54712801 0.05070993 8.02343379 0.08346832 10.5 0.125 C10.5 0.455 10.5 0.785 10.5 1.125 C9.18644531 1.17398438 7.87289062 1.22296875 6.51953125 1.2734375 C4.78383405 1.34849468 3.04815797 1.42404123 1.3125 1.5 C0.44818359 1.5309375 -0.41613281 1.561875 -1.30664062 1.59375 C-5.84572706 1.80244363 -9.30602284 2.26766726 -13.5 4.125 C-15.95703125 4.3203125 -15.95703125 4.3203125 -18.3125 4.25 C-19.10269531 4.23195313 -19.89289063 4.21390625 -20.70703125 4.1953125 C-21.29871094 4.17210937 -21.89039063 4.14890625 -22.5 4.125 C-15.59354097 -0.47930602 -8.00847981 -0.13662761 0 0 Z " fill="#E1B366" transform="translate(219.5,56.875)"/>
<path d="M0 0 C0 0.66 0 1.32 0 2 C-0.99 2.495 -0.99 2.495 -2 3 C-1.34 3.66 -0.68 4.32 0 5 C-4.29 7.64 -8.58 10.28 -13 13 C-13.33 12.34 -13.66 11.68 -14 11 C-13.46890625 10.54109375 -12.9378125 10.0821875 -12.390625 9.609375 C-7.8947499 5.70720627 -7.8947499 5.70720627 -3.625 1.5625 C-2 0 -2 0 0 0 Z " fill="#FDEFC7" transform="translate(246,83)"/>
<path d="M0 0 C1.32 0.66 2.64 1.32 4 2 C1.94988975 5.99231996 0.1315412 8.14080646 -4 10 C-4.99 9.67 -5.98 9.34 -7 9 C-6.34 8.34 -5.68 7.68 -5 7 C-5.33 6.34 -5.66 5.68 -6 5 C-5.195625 4.54625 -4.39125 4.0925 -3.5625 3.625 C-0.91143428 2.25274335 -0.91143428 2.25274335 0 0 Z " fill="#696969" transform="translate(345,237)"/>
<path d="M0 0 C2.96125343 1.37486766 5.60121183 2.76664549 8 5 C8.75 7.6875 8.75 7.6875 9 10 C4.56541027 8.6062718 2.12621626 6.39417765 -1 3 C-0.67 2.01 -0.34 1.02 0 0 Z " fill="#616162" transform="translate(297,248)"/>
<path d="M0 0 C0.33 0.99 0.66 1.98 1 3 C0.44570313 3.47050781 -0.10859375 3.94101563 -0.6796875 4.42578125 C-1.40414063 5.04839844 -2.12859375 5.67101562 -2.875 6.3125 C-3.59429687 6.92738281 -4.31359375 7.54226562 -5.0546875 8.17578125 C-7.19179331 10.0412324 -7.19179331 10.0412324 -9 13 C-11.625 13.1875 -11.625 13.1875 -14 13 C-11.12993232 10.05818063 -8.04604062 7.40339871 -4.9375 4.71875 C-3.22515088 3.19973062 -1.59790099 1.63784851 0 0 Z " fill="#FDF4D7" transform="translate(270,167)"/>
<path d="M0 0 C0.33 0 0.66 0 1 0 C0.67021516 7.60154046 -1.12782571 13.97319219 -4 21 C-4.33 21 -4.66 21 -5 21 C-5.37632149 15.85693968 -4.04771554 12.66879144 -2 8 C-1.62468554 5.67305036 -1.28082798 3.34023315 -1 1 C-0.67 0.67 -0.34 0.34 0 0 Z " fill="#E0AF54" transform="translate(284,132)"/>
<path d="M0 0 C2.475 0.99 2.475 0.99 5 2 C3.35 3.98 1.7 5.96 0 8 C-1.32 7.34 -2.64 6.68 -4 6 C-4 5.01 -4 4.02 -4 3 C-2.68 2.67 -1.36 2.34 0 2 C0 1.34 0 0.68 0 0 Z " fill="#636163" transform="translate(166,68)"/>
<path d="M0 0 C1.32 0 2.64 0 4 0 C3.01 2.97 2.02 5.94 1 9 C0.34 8.67 -0.32 8.34 -1 8 C-1.66 9.32 -2.32 10.64 -3 12 C-4 10 -4 10 -3.22265625 7.6171875 C-2.83980469 6.71226562 -2.45695312 5.80734375 -2.0625 4.875 C-1.68222656 3.96492187 -1.30195312 3.05484375 -0.91015625 2.1171875 C-0.60980469 1.41851562 -0.30945313 0.71984375 0 0 Z " fill="#69696B" transform="translate(112,220)"/>
<path d="M0 0 C2.375 0.1875 2.375 0.1875 5 1 C6.3125 3.5625 6.3125 3.5625 7 6 C3.38970831 6 0.44193324 5.03907418 -3 4 C-2.01 2.68 -1.02 1.36 0 0 Z " fill="#636363" transform="translate(175,222)"/>
<path d="M0 0 C4.77576339 0.4682121 8.04476345 1.24331998 12 4 C9.35261084 5.4606285 8.10551666 6 5 6 C5 5.34 5 4.68 5 4 C4.34 3.67 3.68 3.34 3 3 C3 2.34 3 1.68 3 1 C2.01 0.67 1.02 0.34 0 0 Z " fill="#676769" transform="translate(296,89)"/>
<path d="M0 0 C0.66 0.33 1.32 0.66 2 1 C0.68 3.64 -0.64 6.28 -2 9 C-2.66 8.34 -3.32 7.68 -4 7 C-4.33 7.66 -4.66 8.32 -5 9 C-5.99 8.67 -6.98 8.34 -8 8 C-3.375 2.25 -3.375 2.25 0 0 Z " fill="#E9B050" transform="translate(185,66)"/>
<path d="M0 0 C0.66 0.66 1.32 1.32 2 2 C1.72916115 3.67795566 1.3779399 5.34287891 1 7 C0.73268462 9.76604053 0.5887487 12.53795423 0.4375 15.3125 C0.39431641 16.05306641 0.35113281 16.79363281 0.30664062 17.55664062 C0.20129568 19.37091464 0.10021684 21.1854355 0 23 C-0.33 23 -0.66 23 -1 23 C-1.02894547 19.54168414 -1.04678 16.08339928 -1.0625 12.625 C-1.07087891 11.64015625 -1.07925781 10.6553125 -1.08789062 9.640625 C-1.09111328 8.69960937 -1.09433594 7.75859375 -1.09765625 6.7890625 C-1.10289307 5.91975098 -1.10812988 5.05043945 -1.11352539 4.15478516 C-1 2 -1 2 0 0 Z " fill="#E7AF47" transform="translate(156,107)"/>
<path d="M0 0 C1.33597652 0.80814651 2.668725 1.62163181 4 2.4375 C4.7425 2.88996094 5.485 3.34242188 6.25 3.80859375 C6.8275 4.20175781 7.405 4.59492188 8 5 C8 5.33 8 5.66 8 6 C4.37 6 0.74 6 -3 6 C-3 5.34 -3 4.68 -3 4 C-1.68 4 -0.36 4 1 4 C0.67 2.68 0.34 1.36 0 0 Z " fill="#E7B24D" transform="translate(182,160)"/>
<path d="M0 0 C3.2531655 3.74114033 5.44374911 8.31315138 7 13 C6.67 13.66 6.34 14.32 6 15 C2 8.25 2 8.25 2 6 C1.34 6 0.68 6 0 6 C0 4.02 0 2.04 0 0 Z " fill="#E5B768" transform="translate(277,90)"/>
<path d="M0 0 C1.32 0.66 2.64 1.32 4 2 C2.35 3.65 0.7 5.3 -1 7 C-2.32 6.01 -3.64 5.02 -5 4 C-4.360625 3.71125 -3.72125 3.4225 -3.0625 3.125 C-0.84793921 2.17176549 -0.84793921 2.17176549 0 0 Z " fill="#636363" transform="translate(316,249)"/>
<path d="M0 0 C2 3 2 3 2 5 C-0.3125 6.6875 -0.3125 6.6875 -3 8 C-3.99 7.67 -4.98 7.34 -6 7 C-4.02 4.69 -2.04 2.38 0 0 Z " fill="#666667" transform="translate(220,239)"/>
<path d="M0 0 C-0.61875 0.0825 -1.2375 0.165 -1.875 0.25 C-4.67505419 1.23825442 -4.74113932 2.40359985 -6 5 C-8.125 6.25 -8.125 6.25 -10 7 C-9.625 4.0625 -9.625 4.0625 -9 1 C-6.04335481 -0.4783226 -3.25770263 -0.06032783 0 0 Z " fill="#676768" transform="translate(340,222)"/>
<path d="M0 0 C2.625 0.375 2.625 0.375 5 1 C5.33 1.99 5.66 2.98 6 4 C3.03 4 0.06 4 -3 4 C-2 2 -2 2 0 0 Z " fill="#575758" transform="translate(278,222)"/>
<path d="M0 0 C3.43752007 1.5277867 6.18953688 3.50181056 9 6 C9 6.66 9 7.32 9 8 C5.00499382 6.6302836 2.19990508 4.74277578 -1 2 C-0.67 1.34 -0.34 0.68 0 0 Z " fill="#FEF1C7" transform="translate(198,87)"/>
<path d="M0 0 C2.96404505 2.80804268 5.44499019 5.18315774 7 9 C5.68 9 4.36 9 3 9 C3 8.01 3 7.02 3 6 C2.34 6 1.68 6 1 6 C0.67 4.02 0.34 2.04 0 0 Z " fill="#636365" transform="translate(282,68)"/>
<path d="M0 0 C1.65 0 3.3 0 5 0 C5 1.32 5 2.64 5 4 C2.69 4 0.38 4 -2 4 C-1.34 2.68 -0.68 1.36 0 0 Z " fill="#606060" transform="translate(259,243)"/>
<path d="M0 0 C1.32 0 2.64 0 4 0 C4.33 1.32 4.66 2.64 5 4 C5.99 4 6.98 4 8 4 C8.33 5.65 8.66 7.3 9 9 C7.87105124 8.06725891 6.74699124 7.12859878 5.625 6.1875 C4.99851563 5.66542969 4.37203125 5.14335938 3.7265625 4.60546875 C2 3 2 3 0 0 Z " fill="#E4B25A" transform="translate(188,76)"/>
<path d="M0 0 C0.66 0.33 1.32 0.66 2 1 C1.360625 1.4125 0.72125 1.825 0.0625 2.25 C-2.20990931 4.17810487 -2.60196439 5.11424181 -3 8 C-4.32 8 -5.64 8 -7 8 C-5.50902342 4.2047869 -3.24299151 2.38957269 0 0 Z " fill="#6B6B6D" transform="translate(136,90)"/>
<path d="M0 0 C3.96 1.98 3.96 1.98 8 4 C7.67 4.66 7.34 5.32 7 6 C2.25 5.125 2.25 5.125 0 4 C0 2.68 0 1.36 0 0 Z " fill="#E9B353" transform="translate(196,89)"/>
<path d="M0 0 C0.66 0.33 1.32 0.66 2 1 C1.34 2.32 0.68 3.64 0 5 C-1.32 5 -2.64 5 -4 5 C-4 4.34 -4 3.68 -4 3 C-5.65 3 -7.3 3 -9 3 C-9 2.67 -9 2.34 -9 2 C-3.25 1 -3.25 1 -1 1 C-0.67 0.67 -0.34 0.34 0 0 Z " fill="#6D6D6F" transform="translate(148,87)"/>
<path d="M0 0 C-1.55500981 3.81684226 -4.03595495 6.19195732 -7 9 C-6.37315423 6.07471973 -5.51695295 3.58774327 -4 1 C-2 0 -2 0 0 0 Z " fill="#E3B259" transform="translate(275,160)"/>
<path d="M0 0 C0.33 0 0.66 0 1 0 C1.49230769 7.38461538 1.49230769 7.38461538 -1 10.5 C-1.66 10.995 -2.32 11.49 -3 12 C-2.68950274 10.56206608 -2.3765224 9.1246682 -2.0625 7.6875 C-1.88847656 6.88699219 -1.71445313 6.08648437 -1.53515625 5.26171875 C-1 3 -1 3 0 0 Z " fill="#E9BC76" transform="translate(158,97)"/>
<path d="M0 0 C3.68754757 0.49831724 5.60490662 1.10067643 8 4 C6.02 4.99 6.02 4.99 4 6 C3.01 5.34 2.02 4.68 1 4 C1.66 4 2.32 4 3 4 C2.01 2.68 1.02 1.36 0 0 Z " fill="#6E6E6F" transform="translate(281,222)"/>
<path d="M0 0 C0.66 0.33 1.32 0.66 2 1 C0.515 2.485 0.515 2.485 -1 4 C-0.34 4.33 0.32 4.66 1 5 C-1.475 6.485 -1.475 6.485 -4 8 C-4 4.87099787 -3.57548683 3.62581138 -2 1 C-1.34 0.67 -0.68 0.34 0 0 Z " fill="#69696A" transform="translate(276,222)"/>
<path d="M0 0 C1.65 1.32 3.3 2.64 5 4 C3.02 4.99 3.02 4.99 1 6 C-0.32 5.01 -1.64 4.02 -3 3 C-2.01 2.01 -1.02 1.02 0 0 Z " fill="#69696A" transform="translate(218,223)"/>
<path d="M0 0 C3.125 -0.1875 3.125 -0.1875 6 0 C5.67 0.99 5.34 1.98 5 3 C2.69 3 0.38 3 -2 3 C-1.34 2.01 -0.68 1.02 0 0 Z " fill="#565657" transform="translate(212,223)"/>
<path d="M0 0 C0.66 0.33 1.32 0.66 2 1 C1 3 1 3 -2.4375 4.1875 C-6 5 -6 5 -8 4 C-6.71349294 3.30289269 -5.42059335 2.61757124 -4.125 1.9375 C-3.40570313 1.55464844 -2.68640625 1.17179687 -1.9453125 0.77734375 C-1.30335938 0.52082031 -0.66140625 0.26429687 0 0 Z " fill="#E5B567" transform="translate(195,61)"/>
<path d="M0 0 C0.66 0 1.32 0 2 0 C2 1.98 2 3.96 2 6 C0.68 6.33 -0.64 6.66 -2 7 C-1.34 4.69 -0.68 2.38 0 0 Z " fill="#5A5A5C" transform="translate(318,231)"/>
<path d="M0 0 C-0.33 0.99 -0.66 1.98 -1 3 C-2.98 3.33 -4.96 3.66 -7 4 C-6.67 3.01 -6.34 2.02 -6 1 C-4 0 -4 0 0 0 Z " fill="#5A5A5A" transform="translate(175,222)"/>
<path d="M0 0 C2.475 0.99 2.475 0.99 5 2 C4.67 2.66 4.34 3.32 4 4 C2.02 4 0.04 4 -2 4 C-1.34 2.68 -0.68 1.36 0 0 Z " fill="#5F5F61" transform="translate(140,138)"/>
<path d="M0 0 C0.99 0.33 1.98 0.66 3 1 C2.67 2.65 2.34 4.3 2 6 C1.01 6 0.02 6 -1 6 C-0.67 4.02 -0.34 2.04 0 0 Z " fill="#5F6161" transform="translate(147,105)"/>
<path d="M0 0 C1.32 0.33 2.64 0.66 4 1 C0.535 3.97 0.535 3.97 -3 7 C-3 6.01 -3 5.02 -3 4 C-2.34 4 -1.68 4 -1 4 C-0.67 2.68 -0.34 1.36 0 0 Z " fill="#E6B256" transform="translate(236,87)"/>
<path d="M0 0 C3.875 1.75 3.875 1.75 5 4 C3.68 4.33 2.36 4.66 1 5 C0.34 3.68 -0.32 2.36 -1 1 C-0.67 0.67 -0.34 0.34 0 0 Z " fill="#6A6A6B" transform="translate(297,248)"/>
<path d="M0 0 C2.31 0 4.62 0 7 0 C7 0.99 7 1.98 7 3 C5.68 3.33 4.36 3.66 3 4 C2.01 2.68 1.02 1.36 0 0 Z " fill="#555555" transform="translate(333,243)"/>
<path d="M0 0 C0 1.98 0 3.96 0 6 C-0.99 6.33 -1.98 6.66 -3 7 C-3 5.02 -3 3.04 -3 1 C-1 0 -1 0 0 0 Z " fill="#595959" transform="translate(299,231)"/>
<path d="M0 0 C0.33 0.99 0.66 1.98 1 3 C-0.32 4.32 -1.64 5.64 -3 7 C-3.66 5.02 -4.32 3.04 -5 1 C-3.35 0.67 -1.7 0.34 0 0 Z " fill="#E7B35A" transform="translate(278,153)"/>
<path d="M0 0 C0.99 0.99 1.98 1.98 3 3 C2.34 3 1.68 3 1 3 C0.67 4.65 0.34 6.3 0 8 C-0.66 7.67 -1.32 7.34 -2 7 C-1.125 1.125 -1.125 1.125 0 0 Z " fill="#FBEBC1" transform="translate(187,76)"/>
<path d="M0 0 C0 0.66 0 1.32 0 2 C0.66 2 1.32 2 2 2 C2 2.66 2 3.32 2 4 C-2.455 3.01 -2.455 3.01 -7 2 C-7 1.67 -7 1.34 -7 1 C-2.25 0 -2.25 0 0 0 Z " fill="#6B696C" transform="translate(243,51)"/>
<path d="M0 0 C1.65 0 3.3 0 5 0 C5.33 1.98 5.66 3.96 6 6 C3.97945196 4.35830472 1.97956942 2.69088222 0 1 C0 0.67 0 0.34 0 0 Z " fill="#696668" transform="translate(265,66)"/>
<path d="M0 0 C0.99 0.66 1.98 1.32 3 2 C3 2.66 3 3.32 3 4 C0.6875 4.625 0.6875 4.625 -2 5 C-2.99 4.34 -3.98 3.68 -5 3 C-3.35 2.01 -1.7 1.02 0 0 Z " fill="#626265" transform="translate(179,50)"/>
</svg>
